#N canvas 719 355 450 300 10;
#X obj 150 77 inlet;
#X obj 150 104 pad~;
#X obj 190 77 r pmnt;
#X obj 150 126 +~;
#X obj 150 148 phasor~;
#X obj 150 170 -~ 0.5;
#X obj 150 192 *~ \$1;
#X obj 150 214 *~;
#X obj 150 236 outlet~;
#X obj 201 104 rind -0.5 0.5;
#X obj 201 126 pad~;
#X obj 256 53 r dis;
#X obj 201 192 rind \$2 \$3;
#X obj 201 214 pad~;
#X obj 299 77 r bt;
#X obj 299 109 r mt;
#X obj 279 160 inlet;
#X obj 316 160 inlet;
#X obj 201 148 r phzr;
#X obj 238 79 * -1;
#X connect 0 0 1 0;
#X connect 1 0 3 0;
#X connect 2 0 1 1;
#X connect 3 0 4 0;
#X connect 4 0 5 0;
#X connect 5 0 6 0;
#X connect 6 0 7 0;
#X connect 7 0 8 0;
#X connect 9 0 10 0;
#X connect 10 0 3 0;
#X connect 11 0 9 2;
#X connect 11 0 19 0;
#X connect 12 0 13 0;
#X connect 13 0 7 1;
#X connect 14 0 9 0;
#X connect 14 0 12 0;
#X connect 15 0 10 1;
#X connect 15 0 13 1;
#X connect 16 0 12 1;
#X connect 17 0 12 2;
#X connect 18 0 4 1;
#X connect 19 0 9 1;
