#N canvas 712 284 607 454 14;
#N canvas 0 0 450 300 (subpatch) 0;
#X array view 576 float 2;
#X coords 0 1 576 -1 200 140 1;
#X restore 325 268 graph;
#X obj 337 35 r play;
#X obj 337 62 metro;
#X obj 337 88 s bt;
#X obj 402 35 ii 2000;
#X floatatom 402 62 5 0 0 0 - - -;
#X obj 402 88 s mt;
#X obj 250 323 bng 15 250 50 0 empty empty empty 17 7 0 10 -89572 -1
-1;
#X obj 250 343 s play;
#X obj 34 294 r vol;
#X floatatom 44 320 5 0 1000 0 - - -;
#X obj 44 345 / 1000;
#X obj 102 351 tgl 15 0 empty empty empty 17 7 0 10 -262144 -1 -1 0
1;
#X obj 103 400 tabwrite~ view;
#X obj 473 35 ii 500;
#X floatatom 473 62 5 0 0 0 - - -;
#X obj 473 88 s pmnt;
#X text 460 112 portamento;
#X floatatom 472 175 5 0 0 0 - - -;
#X obj 472 201 s dis;
#X text 457 221 dissonance;
#N canvas 1187 355 450 350 msg 0;
#X obj 53 67 cupqb;
#X msg 53 104 @ \$1;
#X obj 60 260 t b a;
#X obj 60 286 s chrd;
#X obj 98 67 cupqb;
#X msg 98 104 ot \$1;
#X obj 143 67 cupqb;
#X msg 143 104 ref \$1;
#X msg 211 63 scl 8 t+;
#X msg 211 82 scl 8 t-;
#X msg 204 147 d s d r m+ f s l+ t+ d r m+ f l+;
#X msg 204 166 d s d r m- f s l- t- d r m- f l-;
#X msg 189 200 d 7 12 14 16 17 19 21 22 24 26 28 29 33;
#X msg 24 202 peek;
#X msg 53 45 69;
#X msg 143 45 72;
#X msg 189 219 d s d r m-23 f s l-23 t-23 d r m-23 f l-23;
#X obj 359 42 cupqb;
#X obj 321 42 cupqb;
#X obj 283 99 pack;
#X msg 283 121 scl \$2 \$1;
#X obj 283 42 cupqb;
#X msg 358 90 0;
#X obj 358 112 s phzr;
#X msg 189 257 d -7 1 2 3 4 -4 -3 -2 -1 10 11 12 13;
#X msg 189 238 d -7 -1 1 2 3 4 10 11 12 13 14 15;
#X floatatom 225 107 5 0 0 0 - - -;
#X msg 201 126 oct \$1;
#X msg 189 276 d -7 1 2 3 4;
#X msg 98 45 1;
#X connect 0 0 1 0;
#X connect 1 0 2 0;
#X connect 2 0 3 0;
#X connect 2 1 3 0;
#X connect 4 0 5 0;
#X connect 5 0 2 0;
#X connect 6 0 7 0;
#X connect 7 0 2 0;
#X connect 8 0 2 0;
#X connect 9 0 2 0;
#X connect 10 0 2 0;
#X connect 11 0 2 0;
#X connect 12 0 2 0;
#X connect 13 0 2 0;
#X connect 14 0 0 0;
#X connect 15 0 6 0;
#X connect 16 0 2 0;
#X connect 17 0 19 0;
#X connect 18 0 19 1;
#X connect 19 0 20 0;
#X connect 20 0 2 0;
#X connect 21 0 19 1;
#X connect 21 0 19 0;
#X connect 22 0 23 0;
#X connect 24 0 2 0;
#X connect 25 0 2 0;
#X connect 26 0 27 0;
#X connect 27 0 2 0;
#X connect 28 0 2 0;
#X connect 29 0 4 0;
#X restore 337 134 pd msg;
#N canvas 719 297 559 447 chord 0;
#X obj 59 91 r chrd;
#X obj 59 124 chrd 38 7 12 14 16 17 19 21 22 24 26 28 29 33;
#X obj 59 146 inst 1 0.3 0.5;
#X obj 78 171 inst -1 0.1 0.3;
#X obj 97 196 inst 1 0.05 0.175;
#X obj 116 221 inst 1 0 0.02;
#X obj 135 246 inst -1 0 0.25;
#X obj 154 271 inst 1 0 0.02;
#X obj 173 296 inst -1 0 0.333;
#X obj 192 321 inst 1 0 0.02;
#X obj 211 146 inst -1 0 0.2;
#X obj 230 171 inst 1 0 0.166;
#X obj 249 196 inst -1 0 0.1;
#X obj 268 221 inst 1 0 0.2;
#X obj 287 246 inst -1 0 0.125;
#X obj 306 271 inst 1 0 0.083;
#X obj 111 349 +~;
#X obj 294 349 +~;
#X obj 202 392 outlet~;
#X msg 170 65 all 1 \, @ 69 \, ot 1 \, ref 72;
#X msg 170 93 d s d r m-23 f s l-23 t-23 d r m-23 f l-23;
#X obj 133 38 loadbang;
#X msg 31 58 peek;
#X obj 133 65 t;
#X connect 0 0 1 0;
#X connect 1 0 2 0;
#X connect 1 1 3 0;
#X connect 1 2 4 0;
#X connect 1 3 5 0;
#X connect 1 4 6 0;
#X connect 1 5 7 0;
#X connect 1 6 8 0;
#X connect 1 7 9 0;
#X connect 1 8 10 0;
#X connect 1 9 11 0;
#X connect 1 10 12 0;
#X connect 1 11 13 0;
#X connect 1 12 14 0;
#X connect 1 13 15 0;
#X connect 2 0 16 0;
#X connect 3 0 16 0;
#X connect 4 0 16 0;
#X connect 5 0 16 0;
#X connect 6 0 16 0;
#X connect 7 0 16 0;
#X connect 8 0 16 0;
#X connect 9 0 16 0;
#X connect 10 0 17 0;
#X connect 11 0 17 0;
#X connect 12 0 17 0;
#X connect 13 0 17 0;
#X connect 14 0 17 0;
#X connect 15 0 17 0;
#X connect 16 0 18 0;
#X connect 17 0 18 0;
#X connect 19 0 1 0;
#X connect 20 0 1 0;
#X connect 21 0 23 0;
#X connect 22 0 1 0;
#X connect 23 0 20 0;
#X connect 23 1 19 0;
#X restore 38 24 pd chord;
#N canvas 719 325 450 300 raw 0;
#X obj 178 72 inlet~;
#X obj 178 116 lop~;
#X obj 235 72 r bt;
#X obj 235 94 rind 1000 1100;
#X obj 235 116 zp;
#X obj 268 116 r mt;
#X obj 193 138 outlet~;
#X obj 178 160 *~;
#X obj 205 160 inlet;
#X obj 178 182 /~ 1.25;
#X obj 205 210 throw~ all;
#X connect 0 0 1 0;
#X connect 1 0 7 0;
#X connect 1 0 6 0;
#X connect 2 0 3 0;
#X connect 3 0 4 0;
#X connect 4 0 1 1;
#X connect 5 0 4 1;
#X connect 7 0 9 0;
#X connect 8 0 7 1;
#X connect 9 0 10 0;
#X restore 38 79 pd raw;
#X floatatom 99 53 5 0 1000 0 - - -;
#X obj 99 79 / 1000;
#N canvas 719 325 450 300 cos1 0;
#X obj 178 72 inlet~;
#X obj 178 94 cos~;
#X obj 183 116 outlet~;
#X obj 178 138 lop~;
#X obj 235 94 r bt;
#X obj 235 116 rind 500 1700;
#X obj 235 138 zp;
#X obj 268 138 r mt;
#X obj 178 160 *~;
#X obj 205 160 inlet;
#X obj 178 182 /~ 3.25;
#X obj 205 210 throw~ all;
#X connect 0 0 1 0;
#X connect 1 0 3 0;
#X connect 1 0 2 0;
#X connect 3 0 8 0;
#X connect 4 0 5 0;
#X connect 5 0 6 0;
#X connect 6 0 3 1;
#X connect 7 0 6 1;
#X connect 8 0 10 0;
#X connect 9 0 8 1;
#X connect 10 0 11 0;
#X restore 38 132 pd cos1;
#X floatatom 105 106 5 0 1000 0 - - -;
#X obj 105 132 / 1000;
#N canvas 719 325 450 300 cos2 0;
#X obj 168 58 inlet~;
#X obj 168 80 lop~;
#X obj 168 113 cos~;
#X obj 168 146 lop~;
#X obj 183 168 outlet~;
#X obj 168 190 *~;
#X obj 195 190 inlet;
#X obj 168 212 /~ 3.25;
#X obj 195 240 throw~ all;
#X obj 225 58 rind 125 625;
#X obj 225 80 zp;
#X obj 225 124 rind 550 600;
#X obj 225 146 zp;
#X obj 319 37 r bt;
#X obj 345 131 r mt;
#X connect 0 0 1 0;
#X connect 1 0 2 0;
#X connect 2 0 3 0;
#X connect 3 0 4 0;
#X connect 3 0 5 0;
#X connect 5 0 7 0;
#X connect 6 0 5 1;
#X connect 7 0 8 0;
#X connect 9 0 10 0;
#X connect 10 0 1 1;
#X connect 11 0 12 0;
#X connect 12 0 3 1;
#X connect 13 0 9 0;
#X connect 13 0 11 0;
#X connect 14 0 10 1;
#X connect 14 0 12 1;
#X restore 38 185 pd cos2;
#X floatatom 105 159 5 0 1000 0 - - -;
#X obj 105 185 / 1000;
#N canvas 719 325 450 300 cos3 0;
#X obj 188 82 inlet~;
#X obj 188 104 cos~;
#X obj 188 126 lop~;
#X obj 233 82 r bt;
#X obj 233 104 rind 2000 2500;
#X obj 233 126 zp;
#X obj 260 126 r mt;
#X obj 203 148 outlet~;
#X obj 188 170 *~;
#X obj 215 170 inlet;
#X obj 188 192 /~ 3.25;
#X obj 215 220 throw~ all;
#X connect 0 0 1 0;
#X connect 1 0 2 0;
#X connect 2 0 8 0;
#X connect 2 0 7 0;
#X connect 3 0 4 0;
#X connect 4 0 5 0;
#X connect 5 0 2 1;
#X connect 6 0 5 1;
#X connect 8 0 10 0;
#X connect 9 0 8 1;
#X connect 10 0 11 0;
#X restore 38 238 pd cos3;
#X floatatom 105 212 5 0 1000 0 - - -;
#X obj 105 238 / 1000;
#X msg 165 52 1000;
#X obj 165 79 zp 10000;
#X floatatom 250 79 5 0 0 0 - - -;
#X msg 165 105 1000;
#X obj 165 132 zp 20000;
#X floatatom 260 132 5 0 0 0 - - -;
#X msg 165 158 1000;
#X obj 165 185 zp 20000;
#X floatatom 260 185 5 0 0 0 - - -;
#X obj 217 211 del 60000;
#X obj 165 238 zp 20000;
#X floatatom 260 238 5 0 0 0 - - -;
#X obj 254 26 del 50000;
#X msg 254 53 20000;
#X msg 202 26 750;
#X obj 472 147 ii;
#X obj 217 158 del 30000;
#X msg 165 211 1000;
#X obj 94 319 s chrd;
#N canvas 719 325 450 300 rec 0;
#X obj 227 69 bng 15 250 50 0 empty empty empty 17 7 0 10 -262144 -1
-1;
#X obj 177 232 writesf~ 2;
#X msg 249 121 start;
#X msg 322 137 stop;
#X obj 142 174 inlet~;
#X msg 227 89 open squaw.wav;
#X connect 0 0 5 0;
#X connect 2 0 1 0;
#X connect 3 0 1 0;
#X connect 4 0 1 0;
#X connect 4 0 1 1;
#X connect 5 0 1 0;
#X restore 34 400 pd rec;
#X msg 237 265 0;
#X msg 134 26 400;
#X floatatom 190 301 0 0 0 0 - - -;
#X obj 102 371 metro 27.65;
#N canvas 719 325 450 300 out 0;
#X obj 234 156 *~;
#X obj 256 132 inlet~;
#X obj 226 178 dac~;
#X obj 234 109 hip~ 1;
#X obj 166 193 outlet~;
#X obj 234 87 catch~ all;
#X connect 0 0 2 0;
#X connect 0 0 2 1;
#X connect 1 0 0 1;
#X connect 3 0 0 0;
#X connect 3 0 4 0;
#X connect 5 0 3 0;
#X restore 34 371 pd out;
#N canvas 0 0 450 300 meta 0;
#X text 175 60 artist : myQwil;
#X text 175 80 title : Squawlent Hill;
#X text 175 100 album : foo_pd;
#X text 175 120 date : 2017;
#X text 175 140 tracknumber : 2;
#X text 175 160 totaltracks : 9;
#X text 175 180 discnumber : 1;
#X text 175 200 totaldiscs : 2;
#X text 175 220 length : 3:33.333;
#X restore 337 164 pd meta;
#N canvas 1189 347 450 346 mix 0;
#X obj 160 22 hsl 128 15 59 79 0 0 k empty Octave -2 -8 0 10 -262144
-1 -1 0 1;
#X obj 161 57 hsl 128 15 0 100 0 0 ref empty Reference\\\ Pitch -2
-8 0 10 -262144 -1 -1 0 1;
#X obj 161 101 hsl 128 15 1 0 0 0 raw gradual Phasors -2 -8 0 10 -262144
-1 -1 0 1;
#X obj 160 132 hsl 128 15 1 0 0 0 cos1 gradual 1st\\\ Cosine -2 -8
0 10 -262144 -1 -1 0 1;
#X obj 161 167 hsl 128 15 1 0 0 0 cos2 gradual 2nd\\\ Cosine -2 -8
0 10 -262144 -1 -1 0 1;
#X obj 161 201 hsl 128 15 1 0 0 0 cos3 gradual 3rd\\\ Cosine -2 -8
0 10 -262144 -1 -1 0 1;
#X obj 48 269 bng 15 250 50 0 empty empty msg:l\\\ 69\\\ 7\\\ 12\\\ 14\\\ 16\\\ 17\\\ 19\\\ 21\\\ 22\\\ 24\\\ 26\\\ 28\\\ 29\\\ 33'\\\ ot\\\ 12
17 7 0 10 -262144 -1 -1;
#X obj 48 292 bng 15 250 50 0 msg empty d\\\ s\\\ d\\\ r\\\ m-23\\\ f\\\ s\\\ l-23\\\ t-23\\\ d\\\ r\\\ m-23\\\ f\\\ l-23'\\\ ot\\\ 1
17 7 0 10 -262144 -1 -1;
#X obj 45 318 bng 15 250 50 0 chrd empty peek 17 7 0 10 -262144 -1
-1;
#X obj 161 241 hsl 128 15 -3 -10 0 0 btMsg gradual Beat -2 -8 0 10
-262144 -1 -1 0 1;
#X msg 69 192 set 4 \$1;
#X obj 69 214 s msg;
#X obj 69 153 r btMsg;
#X connect 9 0 10 0;
#X connect 10 0 11 0;
#X connect 12 0 10 0;
#X restore 337 194 pd mix;
#X obj 94 289 r play;
#X connect 1 0 2 0;
#X connect 1 0 35 0;
#X connect 1 0 44 0;
#X connect 1 0 47 0;
#X connect 1 0 38 0;
#X connect 1 0 51 0;
#X connect 2 0 3 0;
#X connect 4 0 5 0;
#X connect 5 0 2 1;
#X connect 5 0 6 0;
#X connect 7 0 8 0;
#X connect 9 0 59 0;
#X connect 10 0 11 0;
#X connect 11 0 59 0;
#X connect 12 0 58 0;
#X connect 14 0 15 0;
#X connect 15 0 16 0;
#X connect 18 0 19 0;
#X connect 22 0 23 0;
#X connect 23 0 26 0;
#X connect 24 0 25 0;
#X connect 25 0 23 1;
#X connect 26 0 29 0;
#X connect 27 0 28 0;
#X connect 28 0 26 1;
#X connect 29 0 32 0;
#X connect 30 0 31 0;
#X connect 31 0 29 1;
#X connect 33 0 34 0;
#X connect 34 0 32 1;
#X connect 35 0 36 0;
#X connect 37 0 36 1;
#X connect 38 0 39 0;
#X connect 39 0 27 0;
#X connect 40 0 39 1;
#X connect 41 0 42 0;
#X connect 42 0 30 0;
#X connect 43 0 42 1;
#X connect 44 0 52 0;
#X connect 45 0 33 0;
#X connect 46 0 45 1;
#X connect 47 0 48 0;
#X connect 47 0 49 0;
#X connect 47 0 56 0;
#X connect 48 0 36 1;
#X connect 49 0 36 0;
#X connect 50 0 18 0;
#X connect 51 0 41 0;
#X connect 52 0 45 0;
#X connect 55 0 45 0;
#X connect 56 0 39 0;
#X connect 57 0 58 1;
#X connect 58 0 13 0;
#X connect 59 0 54 0;
#X connect 59 0 13 0;
#X connect 62 0 53 0;
