#N canvas 221 181 726 540 12;
#X obj 309 368 simpleFM~;
#X obj 249 221 vline~;
#X obj 268 365 *~;
#X obj 68 7 inlet;
#X obj 357 25 noise~;
#X obj 128 231 /~ 8;
#X obj 454 305 +~ 1000;
#X obj 358 76 osc~ 4400;
#X obj 454 276 *~ 1000;
#X obj 25 24 tgl 15 0 empty empty empty 17 7 0 10 -262144 -1 -1 0 1
;
#X obj 378 342 *~;
#X obj 358 51 *~ 880;
#X obj 357 100 vcf~ 10;
#X obj 356 128 *~ 5555;
#X obj 523 354 inlet;
#X obj 268 418 *~;
#X obj 167 156 pack 0 0 0;
#X msg 249 197 \$1 \, \$2 \$3;
#X obj 211 107 rind 30 75;
#X obj 167 131 rind 125 200;
#X obj 250 82 rind 50 200;
#X obj 39 150 bng 15 250 50 0 empty empty empty 17 7 0 10 -262144 -1
-1;
#X obj 253 491 adac~;
#X obj 506 200 rind 25 75;
#X obj 149 79 t b b b b b;
#X obj 129 193 ad~ 1 800;
#X obj 454 247 ad~ 0 100;
#X obj 82 286 fkick~ 70 32;
#X obj 45 172 r play;
#X obj 141 483 throw~ sview;
#X obj 81 315 *~ 0.35;
#X obj 70 33 spigot;
#X obj 26 216 del 500;
#X connect 0 0 2 1;
#X connect 1 0 0 0;
#X connect 2 0 15 0;
#X connect 3 0 31 0;
#X connect 4 0 11 0;
#X connect 5 0 2 0;
#X connect 6 0 12 1;
#X connect 7 0 12 0;
#X connect 8 0 6 0;
#X connect 8 0 10 0;
#X connect 9 0 31 1;
#X connect 10 0 0 2;
#X connect 11 0 7 0;
#X connect 12 0 13 0;
#X connect 13 0 0 1;
#X connect 14 0 15 1;
#X connect 15 0 22 1;
#X connect 15 0 22 0;
#X connect 15 0 29 0;
#X connect 16 0 17 0;
#X connect 17 0 1 0;
#X connect 18 0 16 1;
#X connect 19 0 16 0;
#X connect 20 0 16 2;
#X connect 21 0 24 0;
#X connect 23 0 26 2;
#X connect 24 0 25 0;
#X connect 24 0 26 0;
#X connect 24 0 27 0;
#X connect 24 1 23 0;
#X connect 24 2 19 0;
#X connect 24 3 18 0;
#X connect 24 4 20 0;
#X connect 25 0 5 0;
#X connect 26 0 8 0;
#X connect 26 0 10 1;
#X connect 27 0 30 0;
#X connect 28 0 32 0;
#X connect 30 0 15 0;
#X connect 31 0 24 0;
#X connect 32 0 9 0;
#X coords 0 -1 1 1 85 60 1 0 0;
