#N canvas 747 150 438 716 12;
#X obj 129 419 *~;
#X obj 145 72 inlet;
#X obj 141 128 t b b f;
#X obj 203 322 sig~;
#X obj 26 296 expr~ $v1*.025;
#X obj 26 271 sig~;
#X obj 236 191 tgl 15 0 empty empty empty 17 7 0 10 -262144 -1 -1 1
1;
#X obj 236 237 timer;
#X obj 236 212 sel 0 1;
#X obj 219 72 inlet;
#X obj 233 155 spigot;
#X obj 233 128 t;
#X obj 272 130 > 90;
#X obj 148 322 *~ 1000;
#X obj 209 274 * 2;
#X obj 235 424 vd~ del;
#X obj 343 259 tgl 15 0 empty empty empty 17 7 0 10 -262144 -1 -1 1
1;
#X obj 343 213 cpt 32;
#X obj 324 335 pack f f;
#X obj 343 307 timer;
#X obj 343 282 sel 0 1;
#X obj 300 362 vline~;
#X obj 236 362 pack f f;
#X obj 236 393 vline~;
#X obj 310 392 sig~ 1;
#X obj 291 451 -~;
#X obj 235 485 *~;
#X obj 282 485 *~;
#X obj 163 515 delwrite~ del 4000;
#X obj 125 661 adac~;
#X obj 254 316 *~ 0;
#X obj 294 335 * 4;
#X obj 235 453 /~ 2;
#X obj 159 486 *~ 0.5;
#X obj 254 291 /~ 4;
#X obj 272 541 *~;
#X obj 234 541 *~;
#X obj 238 613 inlet;
#X obj 129 587 *~;
#X obj 26 222 rand 5;
#X obj 272 105 rand 100;
#X msg 285 614 1;
#X floatatom 283 239 5 0 0 0 - - -;
#X obj 26 246 muse 124 -5 -9 7 -24;
#X obj 184 23 r play;
#X obj 189 661 throw~ sview;
#X obj 145 100 spigot;
#X msg 184 72 1;
#X obj 219 102 spigot;
#X obj 184 48 del 20000;
#X obj 254 267 ad~ 0.5 800;
#X obj 154 298 ad~ 0.5 700;
#X obj 129 380 freqm~;
#X obj 41 26 tgl 15 0 empty empty empty 17 7 0 10 -262144 -1 -1 0 1
;
#X obj 41 78 s fmon;
#X obj 290 291 r fmon;
#X connect 0 0 38 0;
#X connect 0 0 28 0;
#X connect 1 0 46 0;
#X connect 2 0 50 0;
#X connect 2 1 6 0;
#X connect 2 1 17 0;
#X connect 2 1 39 0;
#X connect 2 1 51 0;
#X connect 2 2 3 0;
#X connect 3 0 52 2;
#X connect 4 0 52 0;
#X connect 5 0 4 0;
#X connect 6 0 8 0;
#X connect 7 0 14 0;
#X connect 7 0 22 0;
#X connect 7 0 31 0;
#X connect 7 0 42 0;
#X connect 7 0 50 2;
#X connect 8 0 7 0;
#X connect 8 1 7 1;
#X connect 9 0 48 0;
#X connect 10 0 6 0;
#X connect 10 0 51 0;
#X connect 11 0 10 0;
#X connect 11 1 40 0;
#X connect 12 0 10 1;
#X connect 13 0 52 1;
#X connect 14 0 51 2;
#X connect 15 0 32 0;
#X connect 15 0 33 0;
#X connect 16 0 20 0;
#X connect 16 0 18 0;
#X connect 17 0 16 0;
#X connect 18 0 21 0;
#X connect 19 0 18 1;
#X connect 20 0 19 0;
#X connect 20 1 19 1;
#X connect 21 0 25 1;
#X connect 21 0 27 1;
#X connect 22 0 23 0;
#X connect 23 0 15 0;
#X connect 24 0 25 0;
#X connect 25 0 26 1;
#X connect 26 0 36 0;
#X connect 27 0 35 0;
#X connect 30 0 0 1;
#X connect 31 0 22 1;
#X connect 32 0 26 0;
#X connect 32 0 27 0;
#X connect 33 0 28 0;
#X connect 34 0 30 0;
#X connect 35 0 29 1;
#X connect 36 0 29 0;
#X connect 37 0 35 1;
#X connect 37 0 36 1;
#X connect 37 0 38 1;
#X connect 38 0 29 1;
#X connect 38 0 29 0;
#X connect 38 0 45 0;
#X connect 39 0 43 0;
#X connect 40 0 12 0;
#X connect 41 0 35 1;
#X connect 41 0 36 1;
#X connect 41 0 38 1;
#X connect 43 0 5 0;
#X connect 44 0 49 0;
#X connect 46 0 2 0;
#X connect 47 0 46 1;
#X connect 47 0 48 1;
#X connect 48 0 11 0;
#X connect 49 0 47 0;
#X connect 49 0 53 0;
#X connect 50 0 34 0;
#X connect 51 0 13 0;
#X connect 52 0 0 0;
#X connect 53 0 54 0;
#X connect 55 0 30 1;
#X coords 0 -1 1 1 85 60 1 0 0;
