#N canvas 390 170 611 551 14;
#X obj 80 290 phasor~;
#X obj 80 480 *~;
#X floatatom 120 420 0 0 0 0 - - -;
#X obj 120 480 zp~;
#X obj 80 140 r sc16;
#X obj 100 360 r bt;
#X obj 80 450 *~;
#X obj 160 290 phasor~;
#X obj 250 450 *~;
#X obj 160 140 r sc16;
#X obj 80 510 add~;
#X obj 250 510 add~;
#X obj 250 480 *~;
#X floatatom 290 420 0 0 0 0 - - -;
#X obj 290 480 zp~;
#X obj 410 390 all~;
#N canvas 910 300 481 461 metro 0;
#X floatatom 80 230 0 0 0 0 - - -;
#X obj 120 200 counter 2 0 16;
#X obj 120 110 metro 150;
#X obj 190 160 s bt;
#X obj 120 290 s sc16;
#X obj 180 290 sel;
#X obj 180 350 s bar;
#X obj 120 230 t f f;
#X obj 130 30 inlet;
#X floatatom 240 150 0 0 0 0 - - -;
#X obj 120 260 +;
#X obj 320 110 unpack 0 0 0;
#X obj 300 260 f;
#X obj 350 260 f;
#X obj 320 80 r events;
#X obj 290 230 b;
#X obj 340 230 b;
#X obj 270 150 moses;
#N canvas 440 330 551 441 events 0;
#X obj 230 370 s events;
#X msg 420 270 0 4 30;
#X msg 40 270 4 0 1;
#X msg 340 270 0 4 31;
#X msg 120 270 4 0 2;
#X obj 80 180 r mt;
#X msg 240 270 0 4 29;
#X obj 150 240 del;
#X obj 40 200 del;
#X obj 240 240 del;
#X obj 420 240 del;
#X obj 40 300 bng 15 250 50 0 empty empty empty 17 7 0 10 -1 -262144
-262144;
#X obj 120 300 bng 15 250 50 0 empty empty empty 17 7 0 10 -1 -262144
-262144;
#X obj 250 300 bng 15 250 50 0 empty empty empty 17 7 0 10 -1 -262144
-262144;
#X obj 350 300 bng 15 250 50 0 empty empty empty 17 7 0 10 -1 -262144
-262144;
#X obj 430 300 bng 15 250 50 0 empty empty empty 17 7 0 10 -1 -262144
-262144;
#X obj 80 200 * 16;
#X obj 180 220 r mt;
#X obj 180 240 * 16;
#X obj 280 220 r mt;
#X obj 280 240 * 16;
#X obj 450 220 r mt;
#X obj 450 240 * 16;
#X obj 80 40 r bar;
#X obj 80 70 sel 0 1 2 3 4 5 6 7, f 44;
#X connect 1 0 0 0;
#X connect 1 0 15 0;
#X connect 2 0 0 0;
#X connect 2 0 11 0;
#X connect 3 0 0 0;
#X connect 3 0 14 0;
#X connect 4 0 0 0;
#X connect 4 0 12 0;
#X connect 5 0 16 0;
#X connect 6 0 0 0;
#X connect 6 0 13 0;
#X connect 7 0 4 0;
#X connect 8 0 2 0;
#X connect 9 0 6 0;
#X connect 10 0 1 0;
#X connect 16 0 8 1;
#X connect 17 0 18 0;
#X connect 18 0 7 1;
#X connect 19 0 20 0;
#X connect 20 0 9 1;
#X connect 21 0 22 0;
#X connect 22 0 10 1;
#X connect 23 0 24 0;
#X connect 24 0 1 0;
#X connect 24 0 8 0;
#X connect 24 1 4 0;
#X connect 24 1 9 0;
#X connect 24 2 1 0;
#X connect 24 2 8 0;
#X connect 24 3 4 0;
#X connect 24 3 9 0;
#X connect 24 4 2 0;
#X connect 24 4 10 0;
#X connect 24 5 3 0;
#X connect 24 5 7 0;
#X connect 24 6 2 0;
#X connect 24 6 10 0;
#X connect 24 7 3 0;
#X restore 340 360 pd events;
#X obj 50 30 loadbang;
#X text 30 390 non-complicated alternative: [moses 2] f's-> 4|0;
#X msg 50 160 goto \$1;
#X msg 50 60 0;
#X obj 330 290 f;
#X floatatom 330 320 0 0 0 0 - - -;
#X obj 180 30 r mt;
#X floatatom 80 290 0 0 0 0 - - -;
#X obj 120 160 t;
#X obj 250 110 ct 32;
#X obj 180 320 ct 8;
#X msg 90 60 -1;
#X connect 1 0 0 0;
#X connect 1 0 7 0;
#X connect 2 0 3 0;
#X connect 2 0 27 0;
#X connect 5 0 29 0;
#X connect 7 0 10 0;
#X connect 7 1 5 0;
#X connect 8 0 2 0;
#X connect 10 0 4 0;
#X connect 10 0 26 0;
#X connect 11 0 12 1;
#X connect 11 1 13 1;
#X connect 11 2 17 1;
#X connect 12 0 10 1;
#X connect 12 0 23 0;
#X connect 13 0 10 1;
#X connect 13 0 23 0;
#X connect 14 0 11 0;
#X connect 15 0 12 0;
#X connect 16 0 13 0;
#X connect 17 0 15 0;
#X connect 17 1 16 0;
#X connect 19 0 22 0;
#X connect 19 0 30 0;
#X connect 21 0 1 0;
#X connect 22 0 21 0;
#X connect 23 0 24 0;
#X connect 25 0 2 1;
#X connect 27 0 28 0;
#X connect 27 1 1 0;
#X connect 28 1 17 0;
#X connect 28 1 9 0;
#X connect 29 1 6 0;
#X connect 30 0 28 0;
#X restore 370 300 pd metro;
#X obj 370 280 tgl 15 0 empty empty empty 17 7 0 10 -1 -262144 -262144
1 1;
#X obj 210 170 r mt;
#X obj 210 200 * 2;
#X floatatom 200 350 0 0 0 0 - - -;
#X obj 170 420 loadbang;
#X text 460 360 master vol;
#X msg 170 450 45;
#X obj 160 230 muse;
#X obj 80 230 muse;
#X obj 370 250 r play;
#X text 60 60 myQwil;
#X msg 210 450 30;
#X obj 80 260 zp~ 2;
#X obj 160 260 zp~ 2;
#X obj 270 390 ad 10 200;
#X obj 100 390 ad 3 185;
#N canvas 740 370 451 301 info 0;
#X text 170 60 artist : Nobuo Uematsu;
#X text 170 80 title : Prelude;
#X text 170 100 album : Final Fantasy;
#X text 170 120 date : 1987;
#X text 170 140 tracknumber : 1;
#X text 170 160 comment : Made in Pd by myQwil;
#X text 170 180 length : 3:15;
#X restore 50 80 pd info;
#X obj 470 430 del 180000;
#X obj 470 400 r play;
#X obj 260 90 cupqb;
#X obj 300 140 r dig;
#X obj 260 140 +;
#X msg 360 140 ot \$1;
#X obj 360 90 cupqb;
#X obj 300 340 * 1.33;
#X obj 240 340 * 1.23;
#X obj 290 450 / 100;
#X obj 120 450 / 100;
#X obj 80 170 f;
#X obj 160 170 f;
#X obj 290 290 r mt;
#X obj 420 90 cupqb;
#X obj 420 140 s mt;
#X obj 390 490 dac~;
#X obj 390 460 *~;
#X obj 370 220 s play;
#X obj 390 340 hsl 128 15 0.001 1 1 0 empty empty empty -2 -8 0 10
-1 -262144 -262144 0 1;
#X obj 290 200 s muse;
#X obj 90 200 r muse;
#N canvas 1000 390 391 331 chords 0;
#X obj 60 30 r bar;
#X floatatom 30 60 0 0 0 0 - - -;
#X obj 70 260 s dig;
#X msg 90 230 -3;
#X msg 50 230 0;
#X obj 250 260 s dig;
#X msg 210 230 -1;
#X msg 250 230 -4;
#X msg 290 230 -2;
#X obj 60 60 sel 0 1 2 3 4 5 6 7, f 29;
#X obj 150 260 s muse;
#X msg 210 120 @ d+2;
#X msg 260 150 @ d+2;
#X msg 50 90 # d+2 2 4 7;
#X msg 90 120 # d-3 2 3 7;
#X msg 120 150 # d+3 2 4 7;
#X msg 240 180 # d-3 4 7 11;
#X msg 180 90 #1 3 8 10;
#X connect 0 0 1 0;
#X connect 0 0 9 0;
#X connect 3 0 2 0;
#X connect 4 0 2 0;
#X connect 6 0 5 0;
#X connect 7 0 5 0;
#X connect 8 0 5 0;
#X connect 9 0 13 0;
#X connect 9 1 14 0;
#X connect 9 2 15 0;
#X connect 9 3 14 0;
#X connect 9 4 17 0;
#X connect 9 5 11 0;
#X connect 9 6 16 0;
#X connect 9 7 12 0;
#X connect 11 0 6 0;
#X connect 11 0 10 0;
#X connect 12 0 8 0;
#X connect 12 0 10 0;
#X connect 13 0 4 0;
#X connect 13 0 10 0;
#X connect 14 0 3 0;
#X connect 14 0 10 0;
#X connect 15 0 4 0;
#X connect 15 0 10 0;
#X connect 16 0 7 0;
#X connect 16 0 10 0;
#X connect 17 0 10 0;
#X restore 450 250 pd chords;
#X obj 390 360 zp~ 100;
#X obj 390 430 *~;
#X msg 430 430 1;
#X obj 370 200 bng 15 250 50 0 empty empty empty 17 7 0 10 -1 -262144
-262144;
#X msg 470 460 0 15000;
#X obj 470 490 line~;
#X obj 80 320 >~ 0.75;
#X obj 160 320 >~ 0.875;
#X obj 160 200 pipe;
#X obj 270 230 b;
#X floatatom 140 350 0 0 0 0 - - -;
#X msg 30 200 peek;
#X msg 430 60 149.8;
#X obj 380 30 loadbang;
#X msg 260 60 44 \, set 46;
#X msg 260 170 @ \$1;
#X obj 470 280 r vol;
#X msg 470 310 bash \$1;
#X connect 0 0 63 0;
#X connect 1 0 10 0;
#X connect 2 0 44 0;
#X connect 3 0 1 1;
#X connect 4 0 45 0;
#X connect 5 0 32 0;
#X connect 6 0 1 0;
#X connect 7 0 64 0;
#X connect 8 0 12 0;
#X connect 9 0 46 0;
#X connect 12 0 11 0;
#X connect 13 0 43 0;
#X connect 14 0 12 1;
#X connect 15 0 58 1;
#X connect 17 0 16 0;
#X connect 18 0 19 0;
#X connect 19 0 65 1;
#X connect 20 0 32 2;
#X connect 20 0 31 2;
#X connect 21 0 28 0;
#X connect 21 0 23 0;
#X connect 23 0 2 0;
#X connect 24 0 30 0;
#X connect 25 0 29 0;
#X connect 26 0 17 0;
#X connect 28 0 13 0;
#X connect 29 0 0 0;
#X connect 30 0 7 0;
#X connect 31 0 8 1;
#X connect 32 0 6 1;
#X connect 34 0 61 0;
#X connect 35 0 34 0;
#X connect 35 0 59 0;
#X connect 36 0 38 0;
#X connect 37 0 38 1;
#X connect 38 0 72 0;
#X connect 39 0 54 0;
#X connect 40 0 39 0;
#X connect 41 0 31 2;
#X connect 42 0 32 2;
#X connect 43 0 14 0;
#X connect 44 0 3 0;
#X connect 45 0 25 0;
#X connect 46 0 65 0;
#X connect 47 0 42 0;
#X connect 47 0 41 0;
#X connect 48 0 49 0;
#X connect 51 0 50 0;
#X connect 51 0 50 1;
#X connect 53 0 57 0;
#X connect 55 0 24 0;
#X connect 55 0 25 0;
#X connect 57 0 58 0;
#X connect 58 0 51 0;
#X connect 59 0 62 0;
#X connect 60 0 52 0;
#X connect 61 0 62 0;
#X connect 62 0 51 1;
#X connect 63 0 6 0;
#X connect 64 0 8 0;
#X connect 65 0 24 0;
#X connect 65 0 66 0;
#X connect 66 0 31 0;
#X connect 67 0 32 1;
#X connect 67 0 31 1;
#X connect 68 0 25 0;
#X connect 69 0 48 1;
#X connect 70 0 71 0;
#X connect 70 0 69 0;
#X connect 71 0 36 1;
#X connect 72 0 54 0;
#X connect 73 0 74 0;
#X connect 74 0 57 1;
