#N canvas 660 285 565 445 10;
#N canvas 747 546 450 300 info 0;
#X text 175 60 artist : Nobuo Uematsu;
#X text 175 80 title : Prelude;
#X text 175 100 album : Final Fantasy;
#X text 175 120 date : 1987;
#X text 175 140 tracknumber : 1;
#X text 175 160 comment : Made in Pd by myQwil;
#X text 175 180 length : 3:15;
#X restore 53 53 pd info;
#X obj 47 273 phasor~;
#X obj 52 364 *~;
#X floatatom 93 341 5 0 0 0 - - -, f 5;
#X obj 93 382 pad~;
#X floatatom 128 160 5 0 0 0 - - -, f 5;
#X obj 75 92 r sc16;
#X obj 131 195 r bt;
#X obj 52 333 *~;
#X obj 206 287 phasor~;
#X obj 323 178 r bt;
#X obj 206 338 *~;
#X obj 295 99 r sc16;
#X obj 37 404 adac~;
#X obj 191 408 adac~;
#X obj 206 374 *~;
#X floatatom 239 339 5 0 0 0 - - -, f 5;
#X obj 239 380 pad~;
#X obj 327 387 mix~;
#X floatatom 327 324 5 0 0 0 - - -, f 5;
#X obj 327 343 / 1000;
#X obj 327 365 pad~;
#N canvas 978 64 367 208 scale 0;
#X obj 174 177 s scale;
#X obj 83 41 sel 0 1 2 3 4 5 6 7 xxxxxxxxxxxxxxxxxxxx;
#X obj 83 17 r bar;
#X floatatom 45 42 5 0 0 0 - - -, f 5;
#X msg 190 73 d 3 8 10;
#X msg 202 97 x d+2;
#X msg 276 106 x d+2;
#X msg 262 84 l d-3 4 7 11;
#X msg 114 116 l d-3 2 3 7;
#X msg 48 76 l d+2 2 4 7;
#X msg 57 97 l d+3 2 4 7;
#X obj 62 177 s dig;
#X msg 76 147 -3;
#X msg 48 147 0;
#X obj 269 177 s dig;
#X msg 240 147 -1;
#X msg 268 147 -4;
#X msg 298 147 -2;
#X connect 1 0 9 0;
#X connect 1 1 8 0;
#X connect 1 2 10 0;
#X connect 1 3 8 0;
#X connect 1 4 4 0;
#X connect 1 5 5 0;
#X connect 1 6 7 0;
#X connect 1 7 6 0;
#X connect 2 0 1 0;
#X connect 2 0 3 0;
#X connect 4 0 0 0;
#X connect 5 0 0 0;
#X connect 5 0 15 0;
#X connect 6 0 0 0;
#X connect 6 0 17 0;
#X connect 7 0 0 0;
#X connect 7 0 16 0;
#X connect 8 0 0 0;
#X connect 8 0 12 0;
#X connect 9 0 0 0;
#X connect 9 0 13 0;
#X connect 10 0 0 0;
#X connect 10 0 13 0;
#X connect 12 0 11 0;
#X connect 13 0 11 0;
#X connect 15 0 14 0;
#X connect 16 0 14 0;
#X connect 17 0 14 0;
#X restore 314 60 pd scale;
#X obj 157 57 r scale;
#N canvas 470 73 484 323 metro 0;
#X floatatom 62 128 5 0 0 0 - - -, f 5;
#X obj 100 126 counter 2 0 16;
#X obj 100 85 metro 150;
#X obj 66 107 s bt;
#X obj 74 225 s sc16;
#X obj 124 225 sel;
#X obj 138 269 s bar;
#X obj 92 165 t f f;
#X obj 99 63 inlet;
#X floatatom 257 110 5 0 0 0 - - -, f 5;
#X obj 171 89 count 32;
#X obj 124 247 count 8;
#X obj 91 190 +;
#X obj 221 156 unpack 0 0 0;
#X obj 219 259 f;
#X obj 259 259 f;
#X obj 221 132 r events;
#X obj 219 237 b;
#X obj 259 237 b;
#X obj 282 196 moses;
#N canvas 742 340 550 448 events 0;
#X obj 232 379 s events;
#X msg 445 274 0 4 30;
#X msg 46 274 4 0 1;
#X msg 347 274 0 4 31;
#X msg 151 274 4 0 2;
#X obj 75 231 r mt;
#X msg 247 274 0 4 29;
#X obj 151 252 del;
#X obj 46 252 del;
#X obj 247 252 del;
#X obj 445 252 del;
#X obj 41 296 bng 15 250 50 0 empty empty empty 17 7 0 10 -262144 -1
-1;
#X obj 146 296 bng 15 250 50 0 empty empty empty 17 7 0 10 -262144
-1 -1;
#X obj 252 296 bng 15 250 50 0 empty empty empty 17 7 0 10 -262144
-1 -1;
#X obj 352 296 bng 15 250 50 0 empty empty empty 17 7 0 10 -262144
-1 -1;
#X obj 450 296 bng 15 250 50 0 empty empty empty 17 7 0 10 -262144
-1 -1;
#X obj 75 252 * 16;
#X obj 180 230 r mt;
#X obj 180 252 * 16;
#X obj 276 230 r mt;
#X obj 276 252 * 16;
#X obj 474 230 r mt;
#X obj 474 252 * 16;
#X obj 124 48 r bar;
#X obj 124 72 sel 0 1 2 3 4 5 6 7 xxxxxxxxxxxxxxxxxxxxxxxxxxxx;
#X connect 1 0 0 0;
#X connect 1 0 15 0;
#X connect 2 0 0 0;
#X connect 2 0 11 0;
#X connect 3 0 0 0;
#X connect 3 0 14 0;
#X connect 4 0 0 0;
#X connect 4 0 12 0;
#X connect 5 0 16 0;
#X connect 6 0 0 0;
#X connect 6 0 13 0;
#X connect 7 0 4 0;
#X connect 8 0 2 0;
#X connect 9 0 6 0;
#X connect 10 0 1 0;
#X connect 16 0 8 1;
#X connect 17 0 18 0;
#X connect 18 0 7 1;
#X connect 19 0 20 0;
#X connect 20 0 9 1;
#X connect 21 0 22 0;
#X connect 22 0 10 1;
#X connect 23 0 24 0;
#X connect 24 0 1 0;
#X connect 24 0 8 0;
#X connect 24 1 4 0;
#X connect 24 1 9 0;
#X connect 24 2 1 0;
#X connect 24 2 8 0;
#X connect 24 3 4 0;
#X connect 24 3 9 0;
#X connect 24 4 2 0;
#X connect 24 4 10 0;
#X connect 24 5 3 0;
#X connect 24 5 7 0;
#X connect 24 6 2 0;
#X connect 24 6 10 0;
#X connect 24 7 3 0;
#X restore 385 288 pd events;
#X obj 253 33 loadbang;
#X text 37 287 non-complicated alternative: [moses 2] f's-> 4|0;
#X msg 186 64 reset \$1;
#X msg 249 87 goto \$1;
#X msg 249 56 0;
#X obj 295 235 f;
#X floatatom 295 259 5 0 0 0 - - -, f 5;
#X obj 139 57 r mt;
#X connect 1 0 0 0;
#X connect 1 0 7 0;
#X connect 2 0 1 0;
#X connect 2 0 3 0;
#X connect 2 0 10 0;
#X connect 5 0 11 0;
#X connect 7 0 12 0;
#X connect 7 1 5 0;
#X connect 8 0 2 0;
#X connect 10 0 9 0;
#X connect 10 0 19 0;
#X connect 11 0 6 0;
#X connect 12 0 4 0;
#X connect 13 0 14 1;
#X connect 13 1 15 1;
#X connect 13 2 19 1;
#X connect 14 0 12 1;
#X connect 14 0 26 0;
#X connect 15 0 12 1;
#X connect 15 0 26 0;
#X connect 16 0 13 0;
#X connect 17 0 14 0;
#X connect 18 0 15 0;
#X connect 19 0 17 0;
#X connect 19 1 18 0;
#X connect 21 0 25 0;
#X connect 23 0 10 0;
#X connect 24 0 1 0;
#X connect 25 0 23 0;
#X connect 25 0 24 0;
#X connect 26 0 27 0;
#X connect 28 0 2 1;
#X restore 249 60 pd metro;
#X obj 249 40 tgl 15 0 empty empty empty 17 7 0 10 -262144 -1 -1 0
1;
#X floatatom 372 165 5 0 0 0 - - -, f 5;
#X obj 372 183 % 150;
#X obj 246 151 pipe 300;
#X obj 310 200 del;
#X obj 393 119 r mt;
#X obj 372 141 * 2;
#X floatatom 380 222 5 0 0 0 - - -, f 5;
#X floatatom 197 215 5 0 0 0 - - -, f 5;
#X msg 154 128 oct \$1;
#X floatatom 154 109 5 0 0 0 - - -, f 5;
#X obj 141 343 loadbang;
#X floatatom 129 176 5 0 0 0 - - -, f 5;
#X floatatom 285 173 5 0 0 0 - - -, f 5;
#X text 313 304 master vol;
#X msg 137 369 45;
#X floatatom 163 196 5 0 0 0 - - -, f 5;
#X floatatom 338 204 5 0 0 0 - - -, f 5;
#X obj 246 173 muse;
#X obj 72 168 muse;
#X obj 297 34 r play;
#X obj 287 343 r vol;
#X msg 170 369 30;
#X obj 72 190 pad~ 2;
#X obj 246 195 pad~ 2;
#X obj 310 222 ad~ 10 200;
#X obj 131 216 ad~ 3 185;
#X obj 443 335 del 180000;
#X msg 372 392 15000;
#X obj 443 357 t;
#X msg 382 361 0;
#X obj 443 313 r play;
#X obj 47 295 expr~ $v1 > 0.75;
#X obj 177 308 expr~ $v1 > 0.9;
#X obj 471 52 cupqb;
#X msg 445 141 x \$1;
#X obj 445 163 s scale;
#X obj 471 28 ii 44;
#X obj 471 119 r dig;
#X obj 445 119 +;
#X msg 507 198 ot \$1;
#X obj 507 162 cupqb;
#X obj 413 190 * 1.33;
#X obj 198 192 * 1.23;
#X obj 239 358 / 100;
#X obj 93 360 / 100;
#X msg 37 117 peek;
#X obj 237 88 b;
#X obj 75 121 f;
#X obj 277 125 f;
#X obj 198 169 r mt;
#X obj 433 237 cupqb;
#X obj 433 274 s mt;
#N canvas 760 335 450 346 trem 0;
#X obj 210 230 outlet;
#X obj 225 68 tgl 15 0 empty empty empty 17 7 0 10 -262144 -1 -1 0
1;
#X obj 225 88 metro;
#X obj 225 110 tgl 15 0 empty empty empty 17 7 0 10 -262144 -1 -1 0
1;
#X obj 225 130 sel 0 1;
#X obj 255 172 f;
#X floatatom 188 114 5 0 0 0 - - -, f 5;
#X obj 210 203 pad;
#X floatatom 281 108 5 0 0 0 - - -, f 5;
#X obj 226 172 f;
#X obj 289 134 * -1;
#X obj 160 87 sel 1;
#X obj 160 139 pipe;
#X obj 215 43 unpack;
#X obj 215 21 ii 70 0.45;
#X connect 1 0 2 0;
#X connect 1 0 11 0;
#X connect 2 0 3 0;
#X connect 3 0 4 0;
#X connect 4 0 9 0;
#X connect 4 1 5 0;
#X connect 5 0 7 0;
#X connect 6 0 2 1;
#X connect 6 0 7 1;
#X connect 6 0 12 1;
#X connect 7 0 0 0;
#X connect 8 0 5 1;
#X connect 8 0 10 0;
#X connect 9 0 7 0;
#X connect 10 0 9 1;
#X connect 11 1 12 0;
#X connect 12 0 7 0;
#X connect 13 0 6 0;
#X connect 13 1 8 0;
#X connect 14 0 13 0;
#X restore 383 61 pd trem;
#X obj 436 47 b, f 1;
#X obj 428 87 +;
#X obj 132 246 osc~;
#X obj 132 268 *~;
#X floatatom 162 262 5 0 0 0 - - -, f 5;
#X floatatom 164 241 5 0 0 0 - - -, f 5;
#X obj 64 235 +~;
#X obj 220 248 +~;
#X obj 439 217 ii 149.8;
#X connect 1 0 57 0;
#X connect 2 0 13 0;
#X connect 2 0 13 1;
#X connect 3 0 70 0;
#X connect 4 0 2 1;
#X connect 5 0 44 1;
#X connect 6 0 73 0;
#X connect 7 0 51 0;
#X connect 8 0 2 0;
#X connect 9 0 58 0;
#X connect 10 0 29 0;
#X connect 11 0 15 0;
#X connect 12 0 74 0;
#X connect 15 0 14 0;
#X connect 15 0 14 1;
#X connect 16 0 69 0;
#X connect 17 0 15 1;
#X connect 19 0 20 0;
#X connect 20 0 21 0;
#X connect 21 0 18 0;
#X connect 23 0 43 0;
#X connect 23 0 44 0;
#X connect 25 0 24 0;
#X connect 26 0 27 0;
#X connect 26 0 28 1;
#X connect 27 0 29 1;
#X connect 28 0 43 0;
#X connect 29 0 50 0;
#X connect 30 0 31 0;
#X connect 30 0 27 1;
#X connect 30 0 67 0;
#X connect 31 0 26 0;
#X connect 32 0 50 2;
#X connect 33 0 51 2;
#X connect 34 0 43 0;
#X connect 34 0 44 0;
#X connect 35 0 34 0;
#X connect 36 0 47 0;
#X connect 36 0 40 0;
#X connect 37 0 48 1;
#X connect 38 0 49 1;
#X connect 40 0 3 0;
#X connect 41 0 51 1;
#X connect 42 0 50 1;
#X connect 43 0 49 0;
#X connect 44 0 48 0;
#X connect 45 0 25 0;
#X connect 46 0 21 0;
#X connect 47 0 16 0;
#X connect 48 0 85 0;
#X connect 49 0 86 0;
#X connect 50 0 11 1;
#X connect 51 0 8 1;
#X connect 52 0 54 0;
#X connect 53 0 21 1;
#X connect 54 0 55 0;
#X connect 54 1 53 0;
#X connect 55 0 21 0;
#X connect 56 0 52 0;
#X connect 57 0 8 0;
#X connect 58 0 11 0;
#X connect 59 0 80 1;
#X connect 59 0 79 0;
#X connect 60 0 61 0;
#X connect 62 0 59 0;
#X connect 63 0 64 1;
#X connect 64 0 60 0;
#X connect 65 0 61 0;
#X connect 66 0 65 0;
#X connect 67 0 32 0;
#X connect 68 0 33 0;
#X connect 69 0 17 0;
#X connect 70 0 4 0;
#X connect 71 0 44 0;
#X connect 72 0 73 0;
#X connect 72 0 74 0;
#X connect 73 0 44 0;
#X connect 74 0 28 0;
#X connect 75 0 68 0;
#X connect 76 0 77 0;
#X connect 78 0 80 0;
#X connect 79 0 80 0;
#X connect 80 0 64 0;
#X connect 80 0 72 0;
#X connect 81 0 82 0;
#X connect 82 0 85 1;
#X connect 82 0 86 1;
#X connect 83 0 82 1;
#X connect 84 0 81 0;
#X connect 85 0 1 0;
#X connect 86 0 9 0;
#X connect 87 0 76 0;
