#N canvas 150 240 521 461 14;
#N canvas 0 50 451 251 (subpatch) 0;
#X array \$0view 480 float 0;
#X coords 0 1 479 -1 200 140 1 0 0;
#X restore 200 40 graph;
#X obj 40 80 tgl 15 0 empty empty empty 17 7 0 10 -262144 -1 -1 1 1
;
#X obj 30 250 tgl 15 0 empty empty empty 17 7 0 10 -262144 -1 -1 0
1;
#X obj 40 50 r tog;
#X obj 40 100 metro;
#X obj 40 130 s bt;
#N canvas 729 340 543 357 drums 0;
#X obj 210 140 noise~;
#X obj 220 230 *~;
#X floatatom 350 170 0 0 0 0 - - -;
#X floatatom 320 170 0 0 0 0 - - -;
#X obj 280 320 throw~ sview;
#X obj 240 290 *~;
#X obj 40 250 sel;
#X floatatom 120 190 0 0 0 0 - - -;
#X obj 230 320 add~;
#X obj 50 130 spigot;
#X obj 90 100 r b4;
#X obj 380 20 r c;
#X obj 50 100 r c;
#X obj 50 190 sel;
#N canvas 1190 520 451 301 vol 0;
#X obj 190 90 ii;
#X obj 220 130 r met;
#X obj 190 130 *;
#X obj 140 130 t;
#X obj 140 260 outlet;
#X obj 190 260 outlet;
#X obj 300 70 r eq;
#X obj 300 90 == 0;
#X obj 30 160 spigot;
#X obj 80 140 r eq;
#X obj 190 230 spigot;
#X obj 140 230 spigot;
#X obj 150 180 r b4;
#X obj 300 160 sel;
#X msg 300 190 10;
#X obj 30 140 r eq6;
#X obj 150 200 t f f;
#X obj 140 110 spigot;
#X obj 140 80 ct;
#X obj 140 60 r bt;
#X floatatom 200 180 0 0 0 0 - - -;
#X floatatom 190 70 0 0 0 0 - - -;
#X floatatom 270 140 0 0 0 0 - - -;
#X obj 190 110 rand 100 700;
#X obj 140 160 rind 0.5 0.65;
#X obj 30 180 sly 0.65 0 63;
#X msg 120 200 0.65;
#X connect 0 0 23 0;
#X connect 1 0 2 1;
#X connect 2 0 10 0;
#X connect 3 0 24 0;
#X connect 3 1 23 0;
#X connect 6 0 7 0;
#X connect 7 0 10 1;
#X connect 7 0 13 0;
#X connect 7 0 17 1;
#X connect 8 0 25 0;
#X connect 9 0 8 1;
#X connect 10 0 5 0;
#X connect 11 0 4 0;
#X connect 12 0 16 0;
#X connect 13 0 14 0;
#X connect 14 0 5 0;
#X connect 15 0 8 0;
#X connect 16 0 26 0;
#X connect 16 1 14 0;
#X connect 16 1 11 1;
#X connect 17 0 3 0;
#X connect 18 0 17 0;
#X connect 18 1 21 0;
#X connect 19 0 18 0;
#X connect 23 0 2 0;
#X connect 23 0 22 0;
#X connect 23 0 18 1;
#X connect 24 0 11 0;
#X connect 24 0 20 0;
#X connect 25 0 11 0;
#X connect 26 0 11 0;
#X restore 120 220 pd vol;
#N canvas 720 290 451 301 vol 0;
#X obj 200 80 ii;
#X obj 230 130 r met;
#X obj 200 130 *;
#X obj 150 130 t;
#X obj 150 240 outlet;
#X obj 200 240 outlet;
#X obj 150 110 spigot;
#X obj 300 70 r eq;
#X obj 300 90 == 0;
#X obj 30 160 spigot;
#X obj 80 140 r eq;
#X obj 200 210 spigot;
#X obj 150 210 spigot;
#X obj 300 150 sel;
#X msg 300 170 10;
#X obj 30 140 r eq7;
#X obj 160 190 r b8;
#X floatatom 210 190 0 0 0 0 - - -;
#X obj 150 90 ct;
#X obj 200 110 rand 100 1000;
#X obj 150 60 r bt;
#X obj 30 180 sly 0.09 0 63;
#X obj 150 160 rind 0.06 0.1;
#X floatatom 110 160 0 0 0 0 - - -;
#X connect 0 0 19 0;
#X connect 1 0 2 1;
#X connect 2 0 11 0;
#X connect 3 0 22 0;
#X connect 3 1 19 0;
#X connect 6 0 3 0;
#X connect 7 0 8 0;
#X connect 8 0 6 1;
#X connect 8 0 11 1;
#X connect 8 0 13 0;
#X connect 9 0 21 0;
#X connect 10 0 9 1;
#X connect 11 0 5 0;
#X connect 11 0 17 0;
#X connect 12 0 4 0;
#X connect 13 0 14 0;
#X connect 14 0 5 0;
#X connect 15 0 9 0;
#X connect 16 0 12 1;
#X connect 18 0 6 0;
#X connect 19 0 2 0;
#X connect 19 0 18 1;
#X connect 20 0 18 0;
#X connect 21 0 12 0;
#X connect 22 0 12 0;
#X connect 22 0 23 0;
#X restore 310 230 pd vol;
#N canvas 780 360 451 301 ptrn 0;
#X obj 80 230 outlet;
#X obj 80 60 r c;
#X obj 80 100 sel;
#X obj 80 120 t;
#X obj 80 210 spigot;
#X obj 260 210 outlet;
#X obj 180 220 outlet;
#X obj 110 130 bng 15 250 50 0 empty empty empty 17 7 0 10 -262144
-1 -1;
#X floatatom 270 240 0 0 0 0 - - -;
#X floatatom 230 240 0 0 0 0 - - -;
#X obj 80 170 t f f;
#X floatatom 150 170 0 0 0 0 - - -;
#X obj 80 80 % 72;
#X obj 220 140 expr (($f1-3) / -1) + 14;
#X obj 130 210 r b32;
#X obj 250 190 expr $f1/10 + 3;
#X obj 220 160 expr $f1/8 + 2;
#X obj 80 150 rand 2 9;
#X connect 1 0 12 0;
#X connect 2 0 3 0;
#X connect 3 0 17 0;
#X connect 4 0 0 0;
#X connect 7 0 17 0;
#X connect 10 0 4 0;
#X connect 10 1 13 0;
#X connect 10 1 15 0;
#X connect 12 0 2 0;
#X connect 13 0 16 0;
#X connect 14 0 4 1;
#X connect 15 0 5 0;
#X connect 15 0 8 0;
#X connect 16 0 6 0;
#X connect 16 0 9 0;
#X connect 17 0 10 0;
#X connect 17 0 11 0;
#X restore 90 160 pd ptrn;
#N canvas 251 325 451 354 bd 0;
#X obj 170 10 inlet;
#X obj 140 310 add~;
#X obj 190 310 throw~ sview;
#X obj 140 250 *~;
#X obj 170 40 spigot;
#X obj 220 10 r b0;
#X obj 190 250 inlet~;
#X floatatom 190 110 0 0 0 0 - - -;
#X floatatom 230 110 0 0 0 0 - - -;
#X obj 170 70 t;
#X floatatom 220 170 0 0 0 0 - - -;
#X obj 220 200 * 0.01;
#X obj 280 10 r bt;
#X obj 280 40 ct;
#X obj 280 70 t;
#X obj 280 130 zp;
#X obj 330 70 *;
#X obj 370 70 r met;
#X floatatom 320 130 0 0 0 0 - - -;
#X obj 330 40 rand 5 30;
#X obj 140 170 *~ 0.65;
#X obj 140 140 fkick~ 90 36;
#N canvas 690 460 281 211 reverb 0;
#X obj 70 140 outlet~;
#X obj 70 100 inlet~;
#X obj 120 100 zp;
#X obj 120 60 t;
#X obj 160 80 rind;
#X floatatom 150 100 0 0 0 0 - - -;
#X obj 170 60 * 1.5;
#X obj 90 80 rind 175;
#X obj 120 30 r pt2;
#X obj 170 30 r _dcay2;
#X floatatom 60 60 0 0 0 0 - - -;
#X floatatom 40 80 0 0 0 0 - - -;
#X obj 80 120 rev2~ 85 75;
#X connect 1 0 0 0;
#X connect 1 0 12 0;
#X connect 2 0 5 0;
#X connect 3 0 7 0;
#X connect 3 1 4 0;
#X connect 4 0 2 1;
#X connect 6 0 4 1;
#X connect 7 0 2 0;
#X connect 10 0 12 2;
#X connect 11 0 12 1;
#X connect 12 0 0 0;
#X restore 140 220 pd reverb;
#X obj 280 100 rind 36 36.2;
#X connect 0 0 4 0;
#X connect 3 0 1 1;
#X connect 3 0 1 0;
#X connect 3 0 2 0;
#X connect 4 0 9 0;
#X connect 5 0 4 1;
#X connect 6 0 3 1;
#X connect 7 0 21 1;
#X connect 8 0 21 2;
#X connect 9 0 21 0;
#X connect 10 0 11 0;
#X connect 11 0 20 1;
#X connect 12 0 13 0;
#X connect 13 0 14 0;
#X connect 14 0 23 0;
#X connect 14 1 19 0;
#X connect 15 0 18 0;
#X connect 15 0 21 2;
#X connect 16 0 15 1;
#X connect 17 0 16 1;
#X connect 19 0 16 0;
#X connect 19 0 13 1;
#X connect 20 0 22 0;
#X connect 21 0 20 0;
#X connect 22 0 3 0;
#X connect 23 0 15 0;
#X restore 70 280 pd bd;
#X obj 50 160 % 6;
#X obj 300 200 ad 6 30;
#X obj 380 50 % 48;
#X obj 380 80 sel 24;
#X obj 120 250 zp~;
#X obj 310 280 zp~;
#X obj 380 210 *~;
#X obj 450 150 ad 1 800;
#X obj 380 180 fmosc~;
#N canvas 940 120 451 301 vals 0;
#X obj 30 120 noise~;
#X obj 30 150 *~ 880;
#X obj 30 210 *~ 5555;
#X obj 30 190 vcf~ 5;
#X obj 30 230 outlet~;
#X obj 80 160 +~ 1000;
#X obj 110 190 *~;
#X obj 80 110 ad 0 100;
#X obj 80 140 *~ 900;
#X obj 110 230 outlet~;
#X obj 30 170 osc~;
#X obj 180 210 vline~;
#X obj 180 160 pack 0 0 0;
#X msg 180 180 \$1 \, \$2 \$3;
#X obj 250 80 rind 20 70;
#X obj 210 110 rind 10 30;
#X obj 180 230 outlet~;
#X obj 140 20 inlet;
#X obj 140 40 t b b b b b;
#X obj 140 80 rind 200;
#X floatatom 320 50 0 0 0 0 - - -;
#X floatatom 300 110 0 0 0 0 - - -;
#X floatatom 260 140 0 0 0 0 - - -;
#X floatatom 260 160 0 0 0 0 - - -;
#X obj 180 130 rind 300 800;
#X connect 0 0 1 0;
#X connect 1 0 10 0;
#X connect 2 0 4 0;
#X connect 3 0 2 0;
#X connect 5 0 3 1;
#X connect 6 0 9 0;
#X connect 7 0 6 1;
#X connect 7 0 8 0;
#X connect 8 0 5 0;
#X connect 8 0 6 0;
#X connect 10 0 3 0;
#X connect 11 0 16 0;
#X connect 12 0 13 0;
#X connect 13 0 11 0;
#X connect 14 0 12 2;
#X connect 15 0 12 1;
#X connect 17 0 18 0;
#X connect 18 0 7 0;
#X connect 18 1 19 0;
#X connect 18 2 24 0;
#X connect 18 3 15 0;
#X connect 18 4 14 0;
#X connect 19 0 7 2;
#X connect 20 0 14 2;
#X connect 21 0 15 2;
#X connect 22 0 24 2;
#X connect 23 0 24 1;
#X connect 24 0 12 0;
#X restore 380 150 pd vals;
#N canvas 690 460 281 211 reverb 0;
#X obj 70 140 outlet~;
#X obj 70 100 inlet~;
#X obj 120 100 zp;
#X obj 120 60 t;
#X obj 160 80 rind;
#X obj 170 60 * 1.5;
#X obj 90 80 rind 175;
#X obj 120 30 r pt2;
#X obj 170 30 r _dcay2;
#X floatatom 60 60 0 0 0 0 - - -;
#X floatatom 40 80 0 0 0 0 - - -;
#X obj 80 120 rev2~ 111 70;
#X connect 1 0 0 0;
#X connect 1 0 11 0;
#X connect 2 0 11 2;
#X connect 3 0 6 0;
#X connect 3 1 4 0;
#X connect 4 0 2 1;
#X connect 5 0 4 1;
#X connect 6 0 2 0;
#X connect 7 0 3 0;
#X connect 8 0 5 0;
#X connect 9 0 11 2;
#X connect 10 0 11 1;
#X connect 11 0 0 0;
#X restore 220 260 pd reverb;
#X floatatom 250 200 0 0 0 0 - - -;
#X obj 210 170 lop~ 500;
#X obj 380 240 *~ 1.2;
#X obj 210 200 *~ 4;
#X floatatom 270 140 0 0 0 0 - - -;
#X obj 240 110 rind 1 600;
#X obj 330 80 r met;
#X obj 330 110 * 48;
#X obj 320 140 zp;
#X obj 40 220 rand 4;
#X obj 20 40 ii;
#X msg 20 70 nop 1 \, max 4;
#X connect 0 0 30 0;
#X connect 1 0 28 0;
#X connect 2 0 19 2;
#X connect 3 0 19 1;
#X connect 5 0 4 0;
#X connect 5 0 8 1;
#X connect 5 0 8 0;
#X connect 6 0 17 0;
#X connect 7 0 38 1;
#X connect 9 0 18 0;
#X connect 10 0 9 1;
#X connect 11 0 20 0;
#X connect 12 0 9 0;
#X connect 13 0 38 0;
#X connect 14 0 22 0;
#X connect 14 1 22 1;
#X connect 15 0 23 0;
#X connect 15 1 23 1;
#X connect 16 0 18 1;
#X connect 16 1 38 1;
#X connect 18 0 13 0;
#X connect 19 0 1 1;
#X connect 20 0 21 0;
#X connect 21 0 19 0;
#X connect 21 0 27 0;
#X connect 21 0 25 0;
#X connect 21 0 34 0;
#X connect 22 0 17 1;
#X connect 23 0 5 1;
#X connect 24 0 31 0;
#X connect 25 0 24 1;
#X connect 26 0 24 0;
#X connect 27 0 26 0;
#X connect 27 1 26 1;
#X connect 27 2 26 2;
#X connect 28 0 5 0;
#X connect 29 0 32 1;
#X connect 30 0 32 0;
#X connect 31 0 28 0;
#X connect 32 0 1 0;
#X connect 34 0 33 0;
#X connect 34 0 37 0;
#X connect 35 0 36 0;
#X connect 36 0 37 1;
#X connect 37 0 30 1;
#X connect 38 0 6 0;
#X connect 39 0 40 0;
#X connect 40 0 38 0;
#X restore 40 220 pd drums;
#X obj 120 280 catch~ sview;
#N canvas 716 250 451 447 fm 0;
#X obj 80 400 add~;
#N canvas 540 530 441 391 shape 0;
#X obj 250 160 r met;
#X obj 270 180 r dcay;
#X obj 250 180 f;
#X obj 270 200 b;
#X obj 240 200 *;
#X obj 200 190 *;
#X obj 160 160 %;
#X obj 70 300 s pt;
#X obj 130 160 sel;
#X obj 70 210 t;
#X obj 110 240 rind 2 100;
#X obj 180 280 f;
#X obj 120 280 t b f;
#X obj 180 310 -;
#X obj 240 220 b;
#X obj 120 330 s _atak;
#X obj 180 330 s _dcay;
#X obj 170 220 /;
#X obj 120 200 r atak;
#X floatatom 80 280 0 0 0 0 - - -;
#X floatatom 200 160 0 0 0 0 - - -;
#X obj 170 70 sel;
#X obj 120 30 r c;
#X obj 200 70 t;
#X obj 200 110 rand 3 4 6 8 9 12 16 18;
#X obj 120 50 % 24;
#X connect 0 0 2 0;
#X connect 1 0 4 1;
#X connect 1 0 3 0;
#X connect 2 0 4 0;
#X connect 3 0 2 0;
#X connect 4 0 5 1;
#X connect 4 0 14 0;
#X connect 5 0 11 1;
#X connect 5 0 17 0;
#X connect 6 0 8 0;
#X connect 8 0 9 0;
#X connect 9 0 7 0;
#X connect 9 1 10 0;
#X connect 10 0 12 0;
#X connect 10 0 19 0;
#X connect 11 0 13 0;
#X connect 12 0 11 0;
#X connect 12 1 15 0;
#X connect 12 1 13 1;
#X connect 13 0 16 0;
#X connect 14 0 5 0;
#X connect 17 0 10 2;
#X connect 18 0 17 1;
#X connect 20 0 5 0;
#X connect 20 0 6 1;
#X connect 21 0 23 0;
#X connect 22 0 25 0;
#X connect 23 0 24 0;
#X connect 24 0 20 0;
#X connect 25 0 21 0;
#X connect 25 0 6 0;
#X restore 330 140 pd shape;
#X obj 20 110 *~;
#X obj 20 50 fmosc~;
#N canvas 366 349 451 301 vals 0;
#X floatatom 100 120 0 0 0 0 - - -;
#X floatatom 250 30 0 0 0 0 - - -;
#X floatatom 200 110 0 0 0 0 - - -;
#X floatatom 370 90 0 0 0 0 - - -;
#X obj 310 250 outlet~;
#X obj 160 250 outlet~;
#X obj 20 250 outlet~;
#X obj 160 70 r pt;
#X floatatom 20 60 0 0 0 0 - - -;
#X msg 20 90 @ \$1;
#X obj 250 60 * 10;
#X floatatom 340 30 0 0 0 0 - - -;
#X msg 340 60 @ \$1;
#X obj 30 120 rand 24;
#X obj 20 150 muse 14 7;
#X obj 310 150 muse 7 3 5 7 10;
#X obj 310 120 rand 37;
#X obj 180 180 r peek;
#X obj 160 150 rind 40 4000;
#X obj 250 210 / 1;
#X obj 240 180 r _dcay;
#X obj 20 210 zp~;
#X obj 160 210 zp~;
#X obj 310 210 zp~;
#X floatatom 250 240 0 0 0 0 - - -;
#X connect 0 0 13 1;
#X connect 1 0 10 0;
#X connect 2 0 18 1;
#X connect 3 0 16 1;
#X connect 7 0 16 0;
#X connect 7 0 18 0;
#X connect 7 0 13 0;
#X connect 8 0 9 0;
#X connect 9 0 14 0;
#X connect 10 0 18 2;
#X connect 11 0 12 0;
#X connect 12 0 15 0;
#X connect 13 0 14 0;
#X connect 14 0 21 0;
#X connect 15 0 23 0;
#X connect 16 0 15 0;
#X connect 17 0 16 0;
#X connect 17 0 18 0;
#X connect 17 0 13 0;
#X connect 18 0 22 0;
#X connect 19 0 22 1;
#X connect 19 0 24 0;
#X connect 20 0 19 0;
#X connect 21 0 6 0;
#X connect 22 0 5 0;
#X connect 23 0 4 0;
#X restore 20 20 pd vals;
#N canvas 640 360 489 324 vals 0;
#X obj 300 280 outlet~;
#X obj 25 280 outlet~;
#X obj 150 280 outlet~;
#X obj 300 250 curve~;
#X obj 25 250 curve~;
#X obj 150 250 curve~;
#X obj 160 50 t;
#X obj 190 150 b;
#X floatatom 30 20 0 0 0 0 - - -;
#X msg 30 50 @ \$1;
#X floatatom 320 20 0 0 0 0 - - -;
#X msg 320 50 @ \$1;
#X floatatom 110 20 0 0 0 0 - - -;
#X msg 110 50 @ \$1;
#X obj 310 220 rind;
#X obj 160 220 rind;
#X obj 30 220 rind;
#X obj 160 20 r pt2;
#X obj 100 160 r peek;
#X obj 300 90 rind 30;
#X obj 22 90 rind 25;
#X obj 160 90 rind 40;
#X obj 20 120 muse 80 4 7 9 10;
#X obj 160 120 muse 76 4 7 9 10;
#X obj 300 120 muse 40 4 7 9 10;
#X obj 60 220 rind -0.7;
#X obj 190 220 rind -0.7;
#X obj 350 220 rind -0.7;
#X obj 220 30 r _dcay2;
#X obj 250 60 r ramp;
#X floatatom 230 90 0 0 0 0 - - -;
#X obj 230 150 *;
#X obj 60 150 / 2;
#X obj 320 150 / 4;
#X connect 3 0 0 0;
#X connect 4 0 1 0;
#X connect 5 0 2 0;
#X connect 6 0 19 0;
#X connect 6 0 20 0;
#X connect 6 0 21 0;
#X connect 6 1 7 0;
#X connect 7 0 14 0;
#X connect 7 0 15 0;
#X connect 7 0 16 0;
#X connect 7 0 25 0;
#X connect 7 0 26 0;
#X connect 7 0 27 0;
#X connect 8 0 9 0;
#X connect 9 0 22 0;
#X connect 10 0 11 0;
#X connect 11 0 24 0;
#X connect 12 0 13 0;
#X connect 13 0 23 0;
#X connect 14 0 3 1;
#X connect 15 0 5 1;
#X connect 16 0 4 1;
#X connect 17 0 6 0;
#X connect 18 0 16 0;
#X connect 18 0 15 0;
#X connect 18 0 14 0;
#X connect 18 0 25 0;
#X connect 19 0 24 0;
#X connect 20 0 22 0;
#X connect 21 0 23 0;
#X connect 22 0 4 0;
#X connect 23 0 5 0;
#X connect 24 0 3 0;
#X connect 25 0 4 2;
#X connect 26 0 5 2;
#X connect 27 0 3 2;
#X connect 28 0 30 0;
#X connect 28 0 31 0;
#X connect 29 0 31 1;
#X connect 31 0 32 0;
#X connect 31 0 33 0;
#X connect 31 0 15 1;
#X connect 32 0 16 1;
#X connect 33 0 14 1;
#X restore 90 20 pd vals;
#X obj 90 50 fmosc~;
#N canvas 951 232 390 369 vals 0;
#X obj 30 330 outlet~;
#X obj 160 330 outlet~;
#X obj 30 300 curve~;
#X obj 160 300 curve~;
#X obj 130 60 t;
#X obj 80 200 b;
#X floatatom 200 60 0 0 0 0 - - -;
#X msg 200 90 @ \$1;
#X floatatom 20 60 0 0 0 0 - - -;
#X msg 20 90 @ \$1;
#X msg 20 23 7;
#X obj 50 270 rind;
#X obj 180 270 rind;
#X obj 130 18 r pt2;
#X obj 240 220 r ramp;
#X obj 70 60 r peek;
#X obj 160 150 muse -11 4 7 9 10;
#X obj 30 120 rind 32;
#X obj 160 120 rind 30;
#X obj 30 150 muse 50 4 7 9 10;
#X obj 200 190 r _dcay2;
#X obj 90 270 rind -0.7;
#X obj 220 270 rind -0.7;
#X obj 200 220 /;
#X connect 2 0 0 0;
#X connect 3 0 1 0;
#X connect 4 0 17 0;
#X connect 4 0 18 0;
#X connect 4 1 5 0;
#X connect 5 0 11 0;
#X connect 5 0 12 0;
#X connect 5 0 21 0;
#X connect 5 0 22 0;
#X connect 6 0 7 0;
#X connect 7 0 16 0;
#X connect 8 0 9 0;
#X connect 9 0 19 0;
#X connect 10 0 8 0;
#X connect 10 0 6 0;
#X connect 11 0 2 1;
#X connect 12 0 3 1;
#X connect 13 0 4 0;
#X connect 14 0 23 1;
#X connect 15 0 12 0;
#X connect 15 0 11 0;
#X connect 15 0 17 0;
#X connect 15 0 18 0;
#X connect 16 0 3 0;
#X connect 17 0 19 0;
#X connect 18 0 16 0;
#X connect 19 0 2 0;
#X connect 20 0 23 0;
#X connect 21 0 2 2;
#X connect 22 0 3 2;
#X connect 23 0 12 1;
#X connect 23 0 11 1;
#X restore 160 20 pd vals;
#X obj 200 170 ad;
#X floatatom 240 170 0 0 0 0 - _dcay2 -;
#X floatatom 240 140 0 0 0 0 - _atak2 -;
#X obj 150 200 *~;
#X obj 180 140 r pt2;
#N canvas 1000 520 441 391 shape2 0;
#X obj 260 170 r met;
#X obj 260 190 f;
#X obj 290 220 b;
#X obj 250 210 *;
#X obj 200 190 *;
#X obj 160 160 %;
#X obj 130 160 sel;
#X obj 70 210 t;
#X obj 180 270 f;
#X obj 120 270 t b f;
#X obj 180 300 -;
#X obj 250 230 b;
#X obj 170 220 /;
#X floatatom 80 270 0 0 0 0 - - -;
#X obj 120 330 s _atak2;
#X obj 190 330 s _dcay2;
#X obj 70 290 s pt2;
#X obj 290 190 r dcay2;
#X obj 120 200 r atak2;
#X floatatom 200 160 0 0 0 0 - - -;
#X obj 170 70 sel;
#X obj 120 20 r c;
#X obj 200 70 t;
#X obj 110 240 rind 2 100;
#X obj 120 40 % 18;
#X obj 200 100 rand 2 3 4 6 8 9;
#X connect 0 0 1 0;
#X connect 1 0 3 0;
#X connect 2 0 1 0;
#X connect 3 0 4 1;
#X connect 3 0 11 0;
#X connect 4 0 8 1;
#X connect 4 0 12 0;
#X connect 5 0 6 0;
#X connect 6 0 7 0;
#X connect 7 0 16 0;
#X connect 7 1 23 0;
#X connect 8 0 10 0;
#X connect 9 0 8 0;
#X connect 9 1 10 1;
#X connect 9 1 14 0;
#X connect 10 0 15 0;
#X connect 11 0 4 0;
#X connect 12 0 23 2;
#X connect 17 0 3 1;
#X connect 17 0 2 0;
#X connect 18 0 12 1;
#X connect 19 0 5 1;
#X connect 19 0 4 0;
#X connect 20 0 22 0;
#X connect 21 0 24 0;
#X connect 22 0 25 0;
#X connect 23 0 9 0;
#X connect 23 0 13 0;
#X connect 24 0 20 0;
#X connect 24 0 5 0;
#X connect 25 0 19 0;
#X restore 330 260 pd shape2;
#X obj 150 360 pan~;
#X obj 150 110 *~;
#X obj 60 290 throw~ sview;
#X obj 20 360 pan~;
#N canvas 530 580 451 301 dcay2 0;
#X obj 180 190 zp;
#X obj 180 210 s dcay2;
#X obj 240 140 r met;
#X obj 210 140 *;
#X obj 180 130 t;
#X obj 200 60 r eq;
#X obj 200 80 == 0;
#X floatatom 300 40 0 0 0 0 - - -;
#X obj 260 80 s dcay2;
#X obj 260 40 r eq3;
#X obj 210 100 ii;
#X floatatom 120 220 0 0 0 0 - - -;
#X obj 160 100 spigot;
#X obj 150 80 ct;
#X obj 150 60 r bt;
#X obj 210 120 rand 100 700;
#X obj 330 100 r peek;
#X obj 260 60 sly 2 0.1 63;
#X obj 180 160 rind 0.25 1.5;
#X obj 120 160 ii 1.2;
#X connect 0 0 11 0;
#X connect 0 0 1 0;
#X connect 2 0 3 1;
#X connect 3 0 0 1;
#X connect 4 0 18 0;
#X connect 4 1 15 0;
#X connect 5 0 6 0;
#X connect 6 0 12 1;
#X connect 7 0 17 0;
#X connect 9 0 17 0;
#X connect 10 0 15 0;
#X connect 12 0 4 0;
#X connect 13 0 12 0;
#X connect 14 0 13 0;
#X connect 15 0 3 0;
#X connect 15 0 13 1;
#X connect 16 0 15 0;
#X connect 16 0 18 0;
#X connect 17 0 8 0;
#X connect 18 0 0 0;
#X connect 19 0 0 0;
#X restore 330 230 pd dcay2;
#N canvas 330 320 451 301 dcay 0;
#X obj 150 160 zp;
#X obj 150 180 s dcay;
#X obj 210 120 r met;
#X obj 180 120 *;
#X obj 150 120 t;
#X obj 170 30 r eq;
#X obj 170 50 == 0;
#X obj 240 60 s dcay;
#X floatatom 280 20 0 0 0 0 - - -;
#X obj 240 20 r eq1;
#X floatatom 90 200 0 0 0 0 - - -;
#X obj 190 70 ii;
#X obj 140 70 spigot;
#X obj 140 50 ct;
#X obj 140 30 r bt;
#X obj 190 90 rand 100 1000;
#X obj 300 100 r peek;
#X obj 240 40 sly 2 0.1 63;
#X obj 150 140 rind 0.15 2;
#X connect 0 0 1 0;
#X connect 0 0 10 0;
#X connect 2 0 3 1;
#X connect 3 0 0 1;
#X connect 4 0 18 0;
#X connect 4 1 15 0;
#X connect 5 0 6 0;
#X connect 6 0 12 1;
#X connect 8 0 17 0;
#X connect 9 0 17 0;
#X connect 11 0 15 0;
#X connect 12 0 4 0;
#X connect 13 0 12 0;
#X connect 14 0 13 0;
#X connect 15 0 3 0;
#X connect 15 0 13 1;
#X connect 16 0 15 0;
#X connect 16 0 18 0;
#X connect 17 0 7 0;
#X connect 18 0 0 0;
#X restore 330 110 pd dcay;
#N canvas 870 410 391 231 vol 0;
#X obj 190 40 ii;
#X obj 220 90 r met;
#X obj 190 90 *;
#X obj 140 90 t;
#X obj 140 140 outlet;
#X obj 190 160 outlet;
#X msg 300 130 10;
#X obj 30 90 spigot;
#X obj 70 70 r eq;
#X obj 190 140 spigot;
#X obj 300 20 r eq;
#X obj 300 50 == 0;
#X obj 300 110 sel;
#X obj 30 70 r eq2;
#X obj 140 60 spigot;
#X obj 140 40 ct;
#X obj 140 20 r bt;
#X obj 190 70 rand 100 500;
#X obj 30 110 sly 0.34 0 63;
#X obj 140 110 rind 0.13 0.27;
#X floatatom 90 170 0 0 0 0 - - -;
#X connect 0 0 17 0;
#X connect 1 0 2 1;
#X connect 2 0 9 0;
#X connect 3 0 19 0;
#X connect 3 1 17 0;
#X connect 6 0 5 0;
#X connect 7 0 18 0;
#X connect 8 0 7 1;
#X connect 9 0 5 0;
#X connect 10 0 11 0;
#X connect 11 0 9 1;
#X connect 11 0 12 0;
#X connect 11 0 14 1;
#X connect 12 0 6 0;
#X connect 13 0 7 0;
#X connect 14 0 3 0;
#X connect 15 0 14 0;
#X connect 16 0 15 0;
#X connect 17 0 2 0;
#X connect 17 0 15 1;
#X connect 18 0 4 0;
#X connect 19 0 4 0;
#X connect 20 0 4 0;
#X restore 190 80 pd vol;
#X obj 150 50 fmore~;
#N canvas 580 510 451 301 vol 0;
#X obj 190 80 ii;
#X obj 220 130 r met;
#X obj 190 130 *;
#X obj 140 130 t;
#X obj 140 230 outlet;
#X obj 190 230 outlet;
#X obj 140 110 spigot;
#X obj 30 160 spigot;
#X obj 80 140 r eq;
#X obj 190 210 spigot;
#X obj 30 140 r eq0;
#X obj 140 210 spigot;
#X obj 160 190 r b4;
#X floatatom 250 70 0 0 0 0 - - -;
#X floatatom 250 230 0 0 0 0 - - -;
#X obj 140 60 r bt;
#X obj 140 80 ct;
#X obj 190 110 rand 100 500;
#X msg 300 170 10;
#X obj 300 70 r eq;
#X obj 300 150 sel;
#X floatatom 200 180 0 0 0 0 - - -;
#X floatatom 300 220 0 0 0 0 - - -;
#X obj 140 160 rind 0.04 0.12;
#X obj 30 180 sly 0.12 0 63;
#X obj 300 90 ==;
#X floatatom 340 90 0 0 0 0 - - -;
#X floatatom 70 70 0 0 0 0 - - -;
#X connect 0 0 17 0;
#X connect 1 0 2 1;
#X connect 2 0 9 0;
#X connect 3 0 23 0;
#X connect 3 1 17 0;
#X connect 6 0 3 0;
#X connect 7 0 24 0;
#X connect 8 0 7 1;
#X connect 9 0 5 0;
#X connect 9 0 14 0;
#X connect 10 0 7 0;
#X connect 11 0 4 0;
#X connect 12 0 11 1;
#X connect 15 0 16 0;
#X connect 16 0 6 0;
#X connect 17 0 2 0;
#X connect 17 0 13 0;
#X connect 17 0 16 1;
#X connect 18 0 5 0;
#X connect 19 0 25 0;
#X connect 20 0 18 0;
#X connect 23 0 11 0;
#X connect 23 0 21 0;
#X connect 24 0 11 0;
#X connect 25 0 20 0;
#X connect 25 0 6 1;
#X connect 25 0 9 1;
#X connect 26 0 25 0;
#X connect 27 0 11 0;
#X restore 40 80 pd vol;
#X obj 60 170 ad;
#X floatatom 100 170 0 0 0 0 - _dcay -;
#X floatatom 100 140 0 0 0 0 - _atak -;
#X obj 20 210 *~;
#X obj 50 140 r pt;
#N canvas 570 150 451 301 atak 0;
#X obj 140 90 %;
#X obj 140 110 sel;
#X obj 190 90 ii;
#X obj 220 130 r met;
#X obj 190 130 *;
#X obj 140 130 t;
#X obj 140 50 r c;
#X obj 190 110 rind 100 500;
#X obj 140 180 zp;
#X obj 140 200 s atak;
#X obj 140 160 rind 5 10;
#X connect 0 0 1 0;
#X connect 1 0 5 0;
#X connect 2 0 7 0;
#X connect 3 0 4 1;
#X connect 4 0 8 1;
#X connect 5 0 10 0;
#X connect 5 1 7 0;
#X connect 6 0 0 0;
#X connect 7 0 0 1;
#X connect 7 0 4 0;
#X connect 8 0 9 0;
#X connect 10 0 8 0;
#X restore 330 80 pd atak;
#N canvas 1050 160 451 301 atak2 0;
#X obj 140 90 %;
#X obj 140 110 sel;
#X obj 190 90 ii;
#X obj 220 130 r met;
#X obj 190 130 *;
#X obj 140 130 t;
#X obj 140 50 r c;
#X floatatom 250 70 0 0 0 0 - - -;
#X obj 190 110 rind 100 500;
#X obj 140 180 zp;
#X obj 140 200 s atak2;
#X obj 140 160 rind 10 20;
#X connect 0 0 1 0;
#X connect 1 0 5 0;
#X connect 2 0 8 0;
#X connect 3 0 4 1;
#X connect 4 0 9 1;
#X connect 5 0 11 0;
#X connect 5 1 8 0;
#X connect 6 0 0 0;
#X connect 8 0 0 1;
#X connect 8 0 4 0;
#X connect 8 0 7 0;
#X connect 9 0 10 0;
#X connect 11 0 9 0;
#X restore 330 200 pd atak2;
#N canvas 441 505 348 266 reverb 0;
#X obj 100 190 outlet~;
#X obj 100 130 inlet~;
#X obj 160 130 zp;
#X obj 150 70 t;
#X obj 210 100 rind;
#X floatatom 200 130 0 0 0 0 - - -;
#X obj 110 160 rev2~ 93;
#X obj 130 100 rind 150;
#X obj 210 70 * 1.5;
#X obj 150 40 r pt;
#X obj 210 40 r _dcay;
#X connect 1 0 0 0;
#X connect 1 0 6 0;
#X connect 2 0 5 0;
#X connect 2 0 6 2;
#X connect 3 0 7 0;
#X connect 3 1 4 0;
#X connect 4 0 2 1;
#X connect 6 0 0 0;
#X connect 7 0 2 0;
#X connect 8 0 4 1;
#X connect 9 0 3 0;
#X connect 10 0 8 0;
#X restore 20 260 pd reverb;
#N canvas 787 503 348 266 reverb 0;
#X obj 100 210 outlet~;
#X obj 100 150 inlet~;
#X obj 160 150 zp;
#X obj 160 90 t;
#X obj 210 120 rind;
#X floatatom 200 150 0 0 0 0 - - -;
#X obj 210 90 * 1.5;
#X obj 130 120 rind 175;
#X obj 160 60 r pt2;
#X obj 210 60 r _dcay2;
#X obj 110 180 rev2~ 88 50;
#X connect 1 0 0 0;
#X connect 1 0 10 0;
#X connect 2 0 5 0;
#X connect 3 0 7 0;
#X connect 3 1 4 0;
#X connect 4 0 2 1;
#X connect 6 0 4 1;
#X connect 7 0 2 0;
#X connect 8 0 3 0;
#X connect 9 0 6 0;
#X connect 10 0 0 0;
#X restore 150 260 pd reverb;
#X obj 50 330 rind -25 25;
#X obj 180 330 rind -25 25;
#X obj 190 110 zp~;
#X obj 50 110 zp~;
#X obj 20 230 *~;
#X obj 150 230 *~;
#X obj 63 230 hsl 64 15 0 1 0 0 empty empty empty -2 -8 0 10 -1 -262144
-262144 6300 1;
#X obj 60 200 `f 1!;
#X connect 2 0 26 0;
#X connect 3 0 2 0;
#X connect 4 0 3 0;
#X connect 4 1 3 1;
#X connect 4 2 3 2;
#X connect 5 0 6 0;
#X connect 5 1 6 1;
#X connect 5 2 6 2;
#X connect 6 0 21 0;
#X connect 7 0 21 1;
#X connect 7 1 21 2;
#X connect 8 0 11 1;
#X connect 9 0 8 2;
#X connect 10 0 8 1;
#X connect 11 0 37 0;
#X connect 12 0 8 0;
#X connect 12 0 33 0;
#X connect 14 0 0 0;
#X connect 14 1 0 1;
#X connect 15 0 11 0;
#X connect 17 0 0 0;
#X connect 17 1 0 1;
#X connect 20 0 34 0;
#X connect 20 1 34 1;
#X connect 21 0 15 0;
#X connect 22 0 35 0;
#X connect 22 1 35 1;
#X connect 23 0 26 1;
#X connect 24 0 23 2;
#X connect 25 0 23 1;
#X connect 26 0 36 0;
#X connect 27 0 23 0;
#X connect 27 0 32 0;
#X connect 30 0 16 0;
#X connect 30 0 17 0;
#X connect 31 0 14 0;
#X connect 31 0 16 0;
#X connect 32 0 17 1;
#X connect 33 0 14 1;
#X connect 34 0 15 1;
#X connect 35 0 2 1;
#X connect 36 0 30 0;
#X connect 37 0 31 0;
#X connect 38 0 36 1;
#X connect 38 0 37 1;
#X connect 39 0 38 0;
#X restore 40 160 pd fm;
#X floatatom 420 40 0 0 0 0 - - -;
#X obj 420 70 s atak;
#X obj 420 220 s met;
#X floatatom 420 190 0 0 0 0 - - -;
#X floatatom 420 100 0 0 0 0 - - -;
#X obj 420 160 s dcay;
#X floatatom 320 310 0 0 0 0 - - -;
#X obj 320 340 s ramp;
#N canvas 810 260 461 341 hum 0;
#X obj 90 180 s lbt;
#X obj 210 130 s latak;
#X obj 210 80 r met;
#X obj 260 130 s lramp;
#N canvas 930 730 401 261 lofm 0;
#X obj 140 100 *~;
#X floatatom 230 40 0 0 0 0 - ldcay -;
#X obj 230 20 bng 15 250 50 0 empty empty empty 17 7 0 10 -262144 -1
-1;
#X floatatom 190 40 0 0 0 0 - latak -;
#X obj 140 130 *~;
#X obj 180 20 r lbt;
#X obj 120 180 add~;
#X obj 170 150 throw~ sview;
#N canvas 370 600 451 201 vals 0;
#X floatatom 30 90 0 0 0 0 - lramp -;
#X obj 10 110 curve~;
#X obj 10 50 r lt;
#X floatatom 100 50 0 0 0 0 - - -;
#X floatatom 180 50 0 0 0 0 - - -;
#X floatatom 180 90 0 0 0 0 - xlramp -;
#X obj 160 110 curve~;
#X obj 160 20 r lbt;
#X floatatom 220 50 0 0 0 0 - - -;
#X obj 160 70 rind 100 800;
#X floatatom 320 90 0 0 0 0 - ramp -;
#X obj 300 110 curve~;
#X obj 300 50 r lt;
#X obj 10 140 outlet~;
#X obj 160 140 outlet~;
#X obj 300 140 outlet~;
#X obj 210 30 ii;
#X obj 10 70 muse 31 2 3 -1 -4 -5;
#X obj 300 70 muse 50 2 3 4 5 4;
#X obj 60 110 rind -0.7;
#X obj 210 110 rind -0.7;
#X obj 350 110 rind -0.7;
#X connect 0 0 1 1;
#X connect 1 0 13 0;
#X connect 2 0 3 0;
#X connect 2 0 17 0;
#X connect 4 0 9 1;
#X connect 5 0 6 1;
#X connect 6 0 14 0;
#X connect 7 0 9 0;
#X connect 7 0 19 0;
#X connect 7 0 20 0;
#X connect 7 0 21 0;
#X connect 8 0 9 2;
#X connect 9 0 6 0;
#X connect 10 0 11 1;
#X connect 11 0 15 0;
#X connect 12 0 18 0;
#X connect 16 0 9 0;
#X connect 17 0 1 0;
#X connect 18 0 11 0;
#X connect 19 0 1 2;
#X connect 20 0 6 2;
#X connect 21 0 11 2;
#X restore 70 20 pd vals;
#X obj 70 50 fmosc~;
#N canvas 930 530 311 241 vals 0;
#X obj 30 180 outlet~;
#X obj 30 150 curve~;
#X obj 110 10 t;
#X obj 120 110 b;
#X floatatom 60 10 0 0 0 0 - - -;
#X msg 60 30 @ \$1;
#X msg 70 -30 7;
#X obj 70 150 rind;
#X floatatom 80 110 0 0 0 0 - - -;
#X floatatom 40 110 0 0 0 0 - - -;
#X obj 110 -5 r lbt;
#X obj 160 -19 r ldcay;
#X floatatom 100 40 0 0 0 0 - - -;
#X obj 150 110 / 4;
#X obj 30 80 muse 19 2 3 7 8;
#X obj 30 60 rind 30;
#X connect 1 0 0 0;
#X connect 2 0 15 0;
#X connect 2 1 3 0;
#X connect 3 0 7 0;
#X connect 4 0 5 0;
#X connect 5 0 14 0;
#X connect 6 0 4 0;
#X connect 7 0 1 1;
#X connect 10 0 2 0;
#X connect 11 0 13 0;
#X connect 12 0 15 1;
#X connect 13 0 7 2;
#X connect 14 0 1 0;
#X connect 14 0 9 0;
#X connect 14 1 8 0;
#X connect 15 0 14 0;
#X restore 130 20 pd vals;
#X obj 180 60 ad;
#X obj 130 70 *~ 0.5;
#X obj 130 50 fmore~;
#N canvas 870 520 451 301 vol 0;
#X obj 190 80 ii;
#X obj 220 130 r met;
#X obj 190 130 *;
#X obj 140 130 t;
#X obj 140 260 outlet;
#X obj 190 260 outlet;
#X obj 300 70 r eq;
#X obj 300 90 == 0;
#X obj 10 170 spigot;
#X obj 60 140 r eq;
#X obj 190 230 spigot;
#X obj 140 230 spigot;
#X obj 300 160 sel;
#X msg 300 190 10;
#X obj 10 140 r eq4;
#X obj 170 180 r b4;
#X obj 170 200 t f f;
#X msg 120 200 0.12;
#X obj 140 110 spigot;
#X obj 140 80 ct;
#X obj 140 60 r bt;
#X obj 190 110 rand 100 1000;
#X obj 140 160 rind 0.05 0.09;
#X obj 10 190 sly 0.09 0 63;
#X connect 0 0 21 0;
#X connect 1 0 2 1;
#X connect 2 0 10 0;
#X connect 3 0 22 0;
#X connect 3 1 21 0;
#X connect 6 0 7 0;
#X connect 7 0 10 1;
#X connect 7 0 12 0;
#X connect 7 0 18 1;
#X connect 8 0 23 0;
#X connect 9 0 8 1;
#X connect 10 0 5 0;
#X connect 11 0 4 0;
#X connect 12 0 13 0;
#X connect 13 0 5 0;
#X connect 14 0 8 0;
#X connect 15 0 16 0;
#X connect 16 0 17 0;
#X connect 16 1 11 1;
#X connect 16 1 13 0;
#X connect 17 0 11 0;
#X connect 18 0 3 0;
#X connect 19 0 18 0;
#X connect 20 0 19 0;
#X connect 21 0 2 0;
#X connect 21 0 19 1;
#X connect 22 0 11 0;
#X connect 23 0 11 0;
#X restore 180 110 pd vol;
#X obj 190 130 zp~;
#X connect 0 0 4 0;
#X connect 1 0 11 2;
#X connect 2 0 11 0;
#X connect 3 0 11 1;
#X connect 4 0 6 1;
#X connect 4 0 6 0;
#X connect 4 0 7 0;
#X connect 5 0 11 0;
#X connect 8 0 9 0;
#X connect 8 1 9 1;
#X connect 8 2 9 2;
#X connect 9 0 0 0;
#X connect 9 0 13 0;
#X connect 10 0 13 1;
#X connect 11 0 0 1;
#X connect 12 0 0 0;
#X connect 13 0 12 0;
#X connect 14 0 15 0;
#X connect 14 1 15 1;
#X connect 15 0 4 1;
#X restore 50 150 pd lofm;
#N canvas 930 420 401 251 hifm 0;
#X obj 130 90 *~;
#X floatatom 230 50 0 0 0 0 - ldcay -;
#X floatatom 170 20 0 0 0 0 - latak -;
#X obj 130 130 *~;
#X obj 190 130 r lbt;
#X obj 120 200 add~;
#X obj 40 170 throw~ sview;
#N canvas 460 430 451 171 vals 0;
#X floatatom 70 80 0 0 0 0 - lramp -;
#X obj 30 100 curve~;
#X obj 30 60 muse 59 10 10 12;
#X floatatom 200 10 0 0 0 0 - - -;
#X floatatom 190 40 0 0 0 0 - - -;
#X floatatom 200 80 0 0 0 0 - xlramp -;
#X obj 150 100 curve~;
#X obj 150 20 r lbt;
#X floatatom 230 40 0 0 0 0 - - -;
#X floatatom 160 80 0 0 0 0 - - -;
#X obj 150 60 rind 100 800;
#X floatatom 320 80 0 0 0 0 - ramp -;
#X obj 310 110 curve~;
#X floatatom 340 40 0 0 0 0 - - -;
#X obj 310 60 muse 29 2 -3 -2;
#X obj 310 40 r ht;
#X obj 30 140 outlet~;
#X obj 150 140 outlet~;
#X obj 310 130 outlet~;
#X obj 110 20 ii;
#X obj 30 40 r ht;
#X obj 360 110 rind -0.7;
#X obj 200 100 rind -0.7;
#X obj 80 100 rind -0.7;
#X obj 150 40 t;
#X connect 0 0 1 1;
#X connect 1 0 16 0;
#X connect 2 0 1 0;
#X connect 4 0 10 1;
#X connect 5 0 6 1;
#X connect 6 0 17 0;
#X connect 7 0 24 0;
#X connect 8 0 10 2;
#X connect 9 0 6 0;
#X connect 10 0 3 0;
#X connect 10 0 6 0;
#X connect 11 0 12 1;
#X connect 12 0 18 0;
#X connect 13 0 14 1;
#X connect 14 0 12 0;
#X connect 15 0 14 0;
#X connect 19 0 10 0;
#X connect 20 0 2 0;
#X connect 21 0 12 2;
#X connect 22 0 6 2;
#X connect 23 0 1 2;
#X connect 24 0 10 0;
#X connect 24 1 21 0;
#X connect 24 1 22 0;
#X connect 24 1 23 0;
#X restore 50 20 pd vals;
#X obj 60 40 fmosc~;
#N canvas 920 430 311 241 vals 0;
#X obj 30 190 outlet~;
#X obj 30 160 curve~;
#X obj 130 30 t;
#X obj 90 110 b;
#X floatatom 50 20 0 0 0 0 - - -;
#X msg 50 40 @ \$1;
#X msg 50 -5 7;
#X obj 50 140 rind;
#X floatatom 190 80 0 0 0 0 - - -;
#X floatatom 40 100 0 0 0 0 - - -;
#X obj 130 10 r lbt;
#X obj 140 110 r ldcay;
#X obj 30 80 muse 19 2 3 7 8;
#X obj 30 60 rind 0 30;
#X obj 110 110 / 4;
#X obj 90 140 rind -0.7;
#X connect 1 0 0 0;
#X connect 2 0 13 0;
#X connect 2 1 3 0;
#X connect 3 0 7 0;
#X connect 3 0 15 0;
#X connect 4 0 5 0;
#X connect 5 0 12 0;
#X connect 6 0 4 0;
#X connect 7 0 1 1;
#X connect 10 0 2 0;
#X connect 11 0 14 0;
#X connect 12 0 1 0;
#X connect 12 0 9 0;
#X connect 12 1 8 0;
#X connect 13 0 12 0;
#X connect 14 0 7 2;
#X connect 15 0 1 2;
#X restore 110 20 pd vals;
#X obj 180 180 ii 0.5;
#X obj 160 40 ad;
#X obj 130 170 pan~;
#X obj 110 60 *~ 0.6;
#X obj 110 40 fmore~;
#N canvas 410 520 451 301 vol 0;
#X obj 190 80 ii;
#X obj 220 130 r met;
#X obj 190 130 *;
#X obj 140 130 t;
#X obj 140 260 outlet;
#X obj 190 260 outlet;
#X obj 300 70 r eq;
#X obj 300 90 == 0;
#X obj 10 170 spigot;
#X obj 60 140 r eq;
#X obj 190 230 spigot;
#X obj 140 230 spigot;
#X obj 300 150 sel;
#X msg 300 170 10;
#X obj 10 140 r eq5;
#X obj 160 180 r b4;
#X obj 160 200 t f f;
#X msg 120 200 0.17;
#X obj 140 100 spigot;
#X obj 140 80 ct;
#X obj 140 60 r bt;
#X obj 190 110 rand 100 1000;
#X obj 140 160 rind 0.06 0.13;
#X obj 10 190 sly 0.13 0 63;
#X connect 0 0 21 0;
#X connect 1 0 2 1;
#X connect 2 0 10 0;
#X connect 3 0 22 0;
#X connect 3 1 21 0;
#X connect 6 0 7 0;
#X connect 7 0 10 1;
#X connect 7 0 12 0;
#X connect 7 0 18 1;
#X connect 8 0 23 0;
#X connect 9 0 8 1;
#X connect 10 0 5 0;
#X connect 11 0 4 0;
#X connect 12 0 13 0;
#X connect 13 0 5 0;
#X connect 14 0 8 0;
#X connect 15 0 16 0;
#X connect 16 0 17 0;
#X connect 16 1 11 1;
#X connect 16 1 13 0;
#X connect 17 0 11 0;
#X connect 18 0 3 0;
#X connect 19 0 18 0;
#X connect 20 0 19 0;
#X connect 21 0 2 0;
#X connect 21 0 19 1;
#X connect 22 0 11 0;
#X connect 23 0 11 0;
#X restore 170 80 pd vol;
#X obj 140 150 rind -10 10;
#X obj 170 100 zp~;
#X connect 0 0 3 0;
#X connect 1 0 11 2;
#X connect 2 0 11 1;
#X connect 3 0 6 0;
#X connect 3 0 12 0;
#X connect 4 0 11 0;
#X connect 4 0 16 0;
#X connect 7 0 8 0;
#X connect 7 1 8 1;
#X connect 7 2 8 2;
#X connect 8 0 0 0;
#X connect 8 0 14 0;
#X connect 9 0 14 1;
#X connect 10 0 12 1;
#X connect 11 0 0 1;
#X connect 12 0 5 0;
#X connect 12 1 5 1;
#X connect 13 0 0 0;
#X connect 14 0 13 0;
#X connect 15 0 17 0;
#X connect 15 1 17 1;
#X connect 16 0 12 1;
#X connect 17 0 3 1;
#X restore 50 120 pd hifm;
#X floatatom 80 210 0 0 0 0 - - -;
#X obj 130 230 s lt;
#X floatatom 240 230 0 0 0 0 - - -;
#X floatatom 160 230 0 0 0 0 - - -;
#X obj 200 230 s ht;
#X obj 120 90 spigot;
#N canvas 830 520 451 351 shape 0;
#X obj 210 210 -;
#X obj 240 230 s ldcay;
#X obj 200 290 s xlramp;
#X obj 240 210 r latak;
#X obj 200 100 r met;
#X obj 210 190 f;
#X obj 240 190 b;
#X floatatom 280 120 0 0 0 0 - - -;
#X msg 290 80 128;
#X obj 190 130 f;
#X obj 250 90 b;
#X obj 200 160 * 318;
#X connect 0 0 1 0;
#X connect 3 0 0 1;
#X connect 3 0 6 0;
#X connect 4 0 9 1;
#X connect 4 0 10 0;
#X connect 5 0 0 0;
#X connect 6 0 5 0;
#X connect 7 0 10 0;
#X connect 7 0 11 1;
#X connect 8 0 7 0;
#X connect 9 0 11 0;
#X connect 10 0 9 0;
#X connect 11 0 2 0;
#X connect 11 0 5 0;
#X restore 210 180 pd shape;
#X obj 210 110 * 0.1;
#X floatatom 250 80 0 0 0 0 - - -;
#X floatatom 180 130 0 0 0 0 - - -;
#X obj 120 160 t;
#X obj 120 70 r c;
#X obj 120 140 sel;
#X obj 160 70 r b8;
#X obj 120 110 % 192;
#X obj 130 210 rand 6;
#X obj 200 210 rand 4;
#X obj 150 140 ii;
#X msg 150 160 nop 1;
#X connect 2 0 13 0;
#X connect 6 0 7 0;
#X connect 11 0 20 0;
#X connect 13 0 1 0;
#X connect 13 0 3 0;
#X connect 13 0 15 0;
#X connect 14 0 13 1;
#X connect 16 0 0 0;
#X connect 16 1 21 0;
#X connect 16 1 22 0;
#X connect 17 0 11 0;
#X connect 18 0 16 0;
#X connect 19 0 11 1;
#X connect 20 0 18 0;
#X connect 21 0 7 0;
#X connect 21 0 9 0;
#X connect 22 0 8 0;
#X connect 22 0 10 0;
#X connect 23 0 24 0;
#X connect 24 0 22 0;
#X connect 24 0 21 0;
#X restore 40 190 pd hum;
#N canvas 70 620 451 301 record 0;
#X obj 220 60 bng 15 250 50 0 empty empty empty 17 7 0 10 -262144 -1
-1;
#X msg 220 80 open imafreq.wav;
#X obj 170 230 writesf~ 2;
#X msg 240 120 start;
#X msg 320 130 stop;
#X obj 120 180 inlet~;
#X obj 290 180 inlet~;
#X connect 0 0 1 0;
#X connect 1 0 2 0;
#X connect 3 0 2 0;
#X connect 4 0 2 0;
#X connect 5 0 2 0;
#X connect 6 0 2 1;
#X restore 100 410 pd record;
#X obj 420 130 * 0.01;
#X obj 100 350 r vol;
#N canvas 420 240 451 301 info 0;
#X text 170 60 artist : myQwil;
#X text 170 80 title : Freq;
#X text 170 100 album : foo_pd;
#X text 170 120 date : 2015;
#X text 170 140 tracknumber : 7;
#X text 170 160 totaltracks : 9;
#X text 170 180 discnumber : 1;
#X text 170 200 totaldiscs : 2;
#X text 170 220 length : 7:18;
#X restore 240 210 pd info;
#X obj 120 140 bng 15 250 50 0 empty empty empty 17 7 0 10 -262144
-1 -1;
#N canvas 580 460 451 301 timing 0;
#X obj 130 20 r bt;
#X obj 130 50 cup;
#X obj 80 140 s b0;
#X obj 130 140 s b4;
#X obj 180 140 s b8;
#X obj 90 80 s c;
#X obj 120 260 s met;
#X obj 90 170 r pre;
#X msg 80 110 1;
#X msg 130 110 1;
#X msg 180 110 1;
#X obj 90 200 sel;
#X floatatom 180 190 0 0 0 0 - - -;
#X floatatom 180 260 0 0 0 0 - - -;
#X floatatom 170 50 0 0 0 0 - - -;
#X msg 230 110 1;
#X floatatom 290 200 0 0 0 0 - - -;
#X floatatom 290 250 0 0 0 0 - - -;
#X obj 290 230 sly 69;
#X obj 300 60 bng 15 250 50 0 empty empty empty 17 7 0 10 -1 -262144
-262144;
#X floatatom 330 110 0 0 0 0 - - -;
#X obj 330 50 metro 1;
#X obj 330 20 tgl 15 0 empty empty empty 17 7 0 10 -1 -262144 -262144
0 1;
#X obj 290 170 tgl 15 0 empty empty empty 17 7 0 10 -1 -262144 -262144
0 1;
#X obj 290 140 sel 999 1000;
#X obj 330 170 tgl 15 0 empty empty empty 17 7 0 10 -1 -262144 -262144
0 1;
#X obj 330 80 rind 0 69;
#X obj 120 230 sly 10 80 63;
#X obj 230 140 s b32;
#X obj 130 80 sel 0 768 1536 6144;
#X connect 0 0 1 0;
#X connect 1 0 5 0;
#X connect 1 0 14 0;
#X connect 1 0 29 0;
#X connect 7 0 11 0;
#X connect 8 0 2 0;
#X connect 9 0 3 0;
#X connect 10 0 4 0;
#X connect 11 1 27 0;
#X connect 12 0 27 0;
#X connect 15 0 28 0;
#X connect 16 0 18 0;
#X connect 18 0 17 0;
#X connect 19 0 26 0;
#X connect 21 0 26 0;
#X connect 22 0 21 0;
#X connect 24 0 23 0;
#X connect 24 1 25 0;
#X connect 26 0 20 0;
#X connect 27 0 6 0;
#X connect 27 0 13 0;
#X connect 29 0 8 0;
#X connect 29 1 9 0;
#X connect 29 2 10 0;
#X connect 29 3 15 0;
#X restore 80 20 pd timing;
#N canvas 564 365 451 301 play 0;
#X obj 160 70 inlet;
#X obj 260 160 s eq;
#X msg 260 130 0;
#X msg 130 130 1;
#X obj 200 160 s pre;
#X obj 160 100 t b b b;
#X msg 200 130 32;
#X obj 220 70 r play;
#X obj 130 160 s _play;
#X connect 0 0 5 0;
#X connect 2 0 1 0;
#X connect 3 0 8 0;
#X connect 5 0 3 0;
#X connect 5 1 6 0;
#X connect 5 2 2 0;
#X connect 6 0 4 0;
#X connect 7 0 5 0;
#X restore 120 160 pd play;
#N canvas 50 480 451 301 playpause 0;
#X obj 90 60 tgl 15 0 empty empty empty 17 7 0 10 -262144 -1 -1 1 1
;
#X obj 120 80 sel 1 0;
#X msg 310 140 4000;
#X msg 310 50 800;
#X obj 270 140 f;
#X obj 270 50 f;
#X obj 310 110 r dcay;
#X obj 310 20 r atak;
#X msg 310 230 800;
#X obj 270 230 f;
#X obj 310 200 r xramp;
#X obj 270 260 s _xramp;
#X msg 120 180 1;
#X msg 40 220 0;
#X obj 80 220 s tog;
#X obj 40 150 spigot;
#X obj 80 90 == 0;
#X obj 80 180 f;
#X obj 40 120 r pt;
#X obj 40 180 t;
#X obj 120 50 del 500;
#X obj 270 170 s _dcay;
#X obj 270 80 s _atak;
#X obj 120 20 r _play;
#X connect 0 0 16 0;
#X connect 0 0 1 0;
#X connect 0 0 17 1;
#X connect 1 0 4 0;
#X connect 1 0 5 0;
#X connect 1 0 9 0;
#X connect 1 0 12 0;
#X connect 1 1 2 0;
#X connect 1 1 3 0;
#X connect 1 1 8 0;
#X connect 2 0 21 0;
#X connect 3 0 22 0;
#X connect 4 0 21 0;
#X connect 5 0 22 0;
#X connect 6 0 4 1;
#X connect 7 0 5 1;
#X connect 8 0 11 0;
#X connect 9 0 11 0;
#X connect 10 0 9 1;
#X connect 12 0 14 0;
#X connect 13 0 14 0;
#X connect 15 0 19 0;
#X connect 16 0 15 1;
#X connect 17 0 1 0;
#X connect 18 0 15 0;
#X connect 19 0 13 0;
#X connect 19 1 17 0;
#X connect 20 0 0 0;
#X connect 23 0 20 0;
#X restore 130 210 pd playpause;
#X msg 30 380 peek;
#X obj 30 410 s peek;
#X obj 120 70 r met;
#X obj 320 220 r eq8;
#X obj 320 250 sly 0.01 2000 63;
#X floatatom 370 220 0 0 63 0 - - -;
#X floatatom 120 100 0 0 0 0 - - -;
#X obj 330 280 ii 150;
#X floatatom 50 250 0 0 0 0 - - -;
#X obj 160 350 hsl 128 15 0.001 1 1 0 empty empty empty -2 -8 0 10
-1 -262144 -262144 6500 1;
#X obj 30 280 metro 32;
#X obj 30 310 tabwrite~ \$0view;
#N canvas 940 450 401 241 out 0;
#X obj 160 150 dac~;
#X obj 80 50 catch~ L;
#X obj 240 50 catch~ R;
#X obj 150 100 *~;
#X obj 200 100 *~;
#X obj 170 50 inlet;
#X obj 80 150 outlet~;
#X obj 240 150 outlet~;
#X connect 1 0 3 0;
#X connect 1 0 6 0;
#X connect 2 0 4 0;
#X connect 2 0 7 0;
#X connect 3 0 0 0;
#X connect 4 0 0 1;
#X connect 5 0 4 1;
#X connect 5 0 3 1;
#X restore 100 380 pd out;
#X obj 332 388 bng 15 250 50 0 empty empty empty 17 7 0 10 -1 -262144
-262144;
#X obj 332 408 s play;
#X obj 30 350 r _play;
#X connect 1 0 4 0;
#X connect 2 0 36 0;
#X connect 3 0 1 0;
#X connect 4 0 5 0;
#X connect 7 0 37 0;
#X connect 9 0 10 0;
#X connect 12 0 11 0;
#X connect 13 0 19 0;
#X connect 15 0 16 0;
#X connect 19 0 14 0;
#X connect 20 0 38 0;
#X connect 22 0 24 0;
#X connect 26 0 27 0;
#X connect 28 0 4 1;
#X connect 28 0 32 0;
#X connect 29 0 30 0;
#X connect 30 0 15 0;
#X connect 31 0 30 0;
#X connect 33 0 15 0;
#X connect 34 0 36 1;
#X connect 35 0 38 0;
#X connect 36 0 37 0;
#X connect 38 0 18 0;
#X connect 38 1 18 1;
#X connect 39 0 40 0;
#X connect 41 0 26 0;
