#N canvas 755 325 450 340 10;
#N canvas 719 355 450 300 info 0;
#X text 175 60 artist : myQwil;
#X text 175 80 title : FreqShift;
#X text 175 100 album : foo_pd;
#X text 175 120 date : 2014;
#X text 175 140 tracknumber : 6;
#X text 175 160 totaltracks : 9;
#X text 175 180 discnumber : 1;
#X text 175 200 totaldiscs : 2;
#X text 175 220 length : 5:30;
#X restore 323 199 pd info;
#X obj 137 63 tgl 15 0 empty empty empty 17 7 0 10 -1 -262144 -1 0
1;
#X floatatom 321 39 5 0 0 0 - - -;
#X obj 228 260 *~;
#X floatatom 326 241 5 0 0 0 - - -;
#X obj 220 285 dac~;
#X obj 321 62 s met;
#X obj 228 216 *~;
#X obj 102 88 sel;
#X obj 196 37 tgl 15 0 empty empty empty 17 7 0 10 -1 -262144 -1 0
1;
#X obj 196 57 metro 10000;
#X obj 278 247 r vol;
#X obj 215 36 r play;
#X obj 286 107 * 1000;
#X floatatom 290 131 8 0 0 0 - - -;
#X obj 102 283 *~;
#X obj 102 212 ad 5 10000;
#X obj 270 35 r shft;
#X obj 241 94 del;
#X obj 208 196 zp~ 200;
#X obj 120 256 zp~ 200;
#X obj 120 179 s shft;
#X obj 120 114 b;
#X floatatom 170 175 8 0 0 0 - - -;
#X obj 286 55 b;
#X obj 266 275 zp~;
#X obj 327 153 bng 15 250 50 0 empty empty empty 17 7 0 10 -95704 -262144
-1;
#X obj 327 173 s play;
#N canvas 719 355 450 300 vals 0;
#X obj 307 252 outlet~;
#X obj 73 252 outlet~;
#X obj 183 252 outlet~;
#X obj 307 202 zp~;
#X obj 73 206 zp~;
#X obj 183 204 zp~;
#X floatatom 314 172 5 0 0 0 - - -;
#X floatatom 194 174 5 0 0 0 - - -;
#X floatatom 74 170 5 0 0 0 - - -;
#X obj 268 171 r met;
#X floatatom 131 129 5 0 0 0 - - -;
#X floatatom 250 128 5 0 0 0 - - -;
#X floatatom 369 131 5 0 0 0 - - -;
#X floatatom 115 190 5 0 0 0 - - -;
#X msg 115 209 x \$1;
#X floatatom 348 198 5 0 0 0 - - -;
#X msg 348 217 x \$1;
#X floatatom 232 202 5 0 0 0 - - -;
#X msg 232 221 x \$1;
#X obj 70 127 rand 46;
#X obj 187 150 muse 48 4 7 9 10;
#X obj 68 150 muse 0 4 7 9 10;
#X obj 307 128 rand 30;
#X obj 307 150 muse 20 3 6 9 10;
#X obj 187 127 rand 40;
#X floatatom 125 171 5 0 0 0 - - -;
#X floatatom 233 172 5 0 0 0 - - -;
#X floatatom 364 176 5 0 0 0 - - -;
#X obj 70 102 metro;
#X obj 70 80 r tog;
#X obj 219 29 r met;
#X obj 187 104 metro;
#X obj 187 82 r tog;
#X floatatom 121 101 5 0 0 0 - - -;
#X floatatom 230 104 5 0 0 0 - - -;
#X obj 307 105 metro;
#X obj 307 83 r tog;
#X floatatom 350 105 5 0 0 0 - - -;
#X obj 263 29 / 2;
#X obj 230 82 rind;
#X obj 350 83 rind;
#X obj 113 80 rind;
#X connect 3 0 0 0;
#X connect 4 0 1 0;
#X connect 5 0 2 0;
#X connect 9 0 3 1;
#X connect 9 0 5 1;
#X connect 10 0 19 1;
#X connect 11 0 24 1;
#X connect 12 0 22 1;
#X connect 13 0 14 0;
#X connect 14 0 21 0;
#X connect 15 0 16 0;
#X connect 16 0 23 0;
#X connect 17 0 18 0;
#X connect 18 0 20 0;
#X connect 19 0 21 0;
#X connect 19 0 25 0;
#X connect 20 0 5 0;
#X connect 20 0 7 0;
#X connect 21 0 4 0;
#X connect 21 0 8 0;
#X connect 22 0 23 0;
#X connect 22 0 27 0;
#X connect 23 0 3 0;
#X connect 23 0 6 0;
#X connect 24 0 20 0;
#X connect 24 0 26 0;
#X connect 28 0 19 0;
#X connect 28 0 41 0;
#X connect 29 0 28 0;
#X connect 30 0 38 0;
#X connect 30 0 39 1;
#X connect 30 0 40 1;
#X connect 30 0 41 1;
#X connect 31 0 24 0;
#X connect 31 0 39 0;
#X connect 32 0 31 0;
#X connect 35 0 22 0;
#X connect 35 0 40 0;
#X connect 36 0 35 0;
#X connect 38 0 39 2;
#X connect 38 0 40 2;
#X connect 38 0 41 2;
#X connect 39 0 31 1;
#X connect 39 0 34 0;
#X connect 40 0 35 1;
#X connect 40 0 37 0;
#X connect 41 0 4 1;
#X connect 41 0 28 1;
#X connect 41 0 33 0;
#X restore 207 130 pd vals;
#N canvas 719 355 450 300 vals 0;
#X obj 118 252 outlet~;
#X obj 241 256 outlet~;
#X obj 118 222 zp~;
#X obj 241 221 zp~;
#X obj 238 187 r met;
#X floatatom 127 180 5 0 0 0 - - -;
#X floatatom 287 184 5 0 0 0 - - -;
#X floatatom 294 209 5 0 0 0 - - -;
#X msg 294 231 x \$1;
#X floatatom 161 205 5 0 0 0 - - -;
#X msg 160 224 x \$1;
#X floatatom 180 137 5 0 0 0 - - -;
#X floatatom 307 139 5 0 0 0 - - -;
#X floatatom 341 117 5 0 0 0 - - -;
#X floatatom 165 180 5 0 0 0 - - -;
#X obj 114 109 metro;
#X obj 114 87 r tog;
#X obj 193 48 r met;
#X floatatom 165 108 5 0 0 0 - - -;
#X obj 237 48 / 2;
#X obj 246 106 metro;
#X obj 246 84 r tog;
#X floatatom 297 105 5 0 0 0 - - -;
#X obj 247 137 rand 22;
#X obj 247 159 muse -15 2 4 6 8;
#X obj 118 137 rand 14;
#X obj 118 159 muse 60 4 5 6 9;
#X obj 289 84 rind;
#X obj 157 87 rind;
#X connect 2 0 0 0;
#X connect 3 0 1 0;
#X connect 4 0 3 1;
#X connect 4 0 2 1;
#X connect 7 0 8 0;
#X connect 8 0 24 0;
#X connect 9 0 10 0;
#X connect 10 0 26 0;
#X connect 11 0 25 1;
#X connect 12 0 23 1;
#X connect 15 0 25 0;
#X connect 15 0 28 0;
#X connect 16 0 15 0;
#X connect 17 0 19 0;
#X connect 17 0 27 1;
#X connect 17 0 28 1;
#X connect 19 0 27 2;
#X connect 19 0 28 2;
#X connect 20 0 23 0;
#X connect 20 0 27 0;
#X connect 21 0 20 0;
#X connect 23 0 13 0;
#X connect 23 0 24 0;
#X connect 24 0 6 0;
#X connect 24 0 3 0;
#X connect 25 0 26 0;
#X connect 26 0 2 0;
#X connect 26 0 5 0;
#X connect 26 1 14 0;
#X connect 27 0 20 1;
#X connect 27 0 22 0;
#X connect 28 0 15 1;
#X connect 28 0 18 0;
#X restore 262 151 pd vals;
#X obj 153 88 s tog;
#X obj 120 234 == 0;
#X text 112 13 myQwil;
#N canvas 719 355 450 300 rec 0;
#X obj 157 65 inlet~;
#X obj 162 133 writesf~;
#X msg 234 71 open shift.wav;
#X msg 244 97 start;
#X msg 245 121 stop;
#X connect 0 0 1 0;
#X connect 2 0 1 0;
#X connect 3 0 1 0;
#X connect 4 0 1 0;
#X restore 161 293 pd rec;
#X obj 228 238 /~ 1.5;
#X obj 319 271 / 1000;
#X obj 321 17 ii 2400;
#X obj 121 157 * 1000;
#X obj 290 87 rind 6 14;
#X obj 119 134 rind 15 30;
#X obj 207 152 fmosc~;
#X obj 229 174 fmore~;
#X connect 1 0 8 0;
#X connect 1 0 19 0;
#X connect 1 0 30 0;
#X connect 1 0 31 0;
#X connect 2 0 6 0;
#X connect 3 0 5 0;
#X connect 3 0 5 1;
#X connect 4 0 35 0;
#X connect 7 0 34 0;
#X connect 8 0 16 0;
#X connect 8 1 22 0;
#X connect 9 0 10 0;
#X connect 10 0 1 0;
#X connect 11 0 25 0;
#X connect 12 0 9 0;
#X connect 13 0 14 0;
#X connect 13 0 18 0;
#X connect 15 0 7 1;
#X connect 16 0 15 0;
#X connect 17 0 10 1;
#X connect 17 0 24 0;
#X connect 18 0 1 0;
#X connect 19 0 7 1;
#X connect 20 0 15 1;
#X connect 22 0 39 0;
#X connect 24 0 38 0;
#X connect 25 0 3 1;
#X connect 26 0 27 0;
#X connect 28 0 40 0;
#X connect 28 1 40 1;
#X connect 28 2 40 2;
#X connect 29 0 41 1;
#X connect 29 1 41 2;
#X connect 31 0 20 0;
#X connect 34 0 3 0;
#X connect 34 0 33 0;
#X connect 35 0 25 0;
#X connect 36 0 2 0;
#X connect 37 0 21 0;
#X connect 37 0 23 0;
#X connect 37 0 16 2;
#X connect 38 0 13 0;
#X connect 39 0 37 0;
#X connect 40 0 41 0;
#X connect 41 0 7 0;
