#N canvas 703 329 485 365 10;
#N canvas 784 355 450 323 info 0;
#X text 175 60 artist : myQwil;
#X text 175 80 title : ModStep;
#X text 175 100 album : foo_pd;
#X text 175 120 date : 2014;
#X text 175 140 tracknumber : 8;
#X text 175 160 totaltracks : 9;
#X text 175 180 discnumber : 1;
#X text 175 200 totaldiscs : 2;
#X text 175 220 length : 2:20;
#X restore 20 263 pd info;
#N canvas 719 355 450 300 mix 0;
#X obj 153 88 hsl 128 15 0 10000 0 0 _met gradual Speed -2 -8 0 10
-262144 -1 -1 0 1;
#X obj 153 121 hsl 128 15 0 500 0 0 fmet gradual Speed\ Fine-tune
-2 -8 0 10 -262144 -1 -1 0 1;
#X obj 203 168 r _met;
#X obj 245 168 r fmet;
#X obj 212 206 #+;
#X obj 212 228 s met;
#X connect 2 0 4 0;
#X connect 3 0 4 1;
#X connect 4 0 5 0;
#X restore 30 297 pd mix;
#X obj 268 173 dac~;
#X obj 272 139 *~;
#X floatatom 356 146 5 0 0 0 - - -, f 5;
#N canvas 0 50 450 250 (subpatch) 0;
#X array \$0-view 500 float 0 black black;
#X coords 0 1 499 -1 200 140 1;
#X restore 273 206 graph;
#X floatatom 432 87 5 0 0 0 - - -, f 5;
#X obj 358 85 tgl 15 0 empty empty empty 17 7 0 10 -261234 -1 -1 0
1;
#X obj 272 85 *~;
#X obj 234 151 tgl 15 0 empty empty empty 17 7 0 10 -204786 -1 -1 0
1;
#X obj 106 202 s tog;
#X obj 60 43 tgl 15 0 empty empty empty 17 7 0 10 -203904 -1 -1 0 1
;
#X obj 358 104 metro 18.87;
#N canvas 692 564 340 219 pause 0;
#X msg 93 148 0, f 2;
#X obj 93 52 spigot;
#X obj 129 78 f;
#X obj 159 52 t f f;
#X obj 159 30 inlet;
#X obj 93 30 inlet;
#X obj 191 145 outlet;
#X obj 93 170 outlet;
#X obj 108 124 outlet;
#X obj 159 124 t;
#X msg 117 148 1, f 2;
#X obj 108 102 sel 0;
#X obj 159 102 sel 1;
#X obj 191 72 ==;
#X connect 0 0 7 0;
#X connect 1 0 0 0;
#X connect 1 0 2 0;
#X connect 2 0 11 0;
#X connect 2 0 12 0;
#X connect 3 0 2 1;
#X connect 3 0 12 0;
#X connect 3 1 13 0;
#X connect 4 0 3 0;
#X connect 5 0 1 0;
#X connect 9 0 10 0;
#X connect 9 1 6 0;
#X connect 10 0 7 0;
#X connect 11 0 8 0;
#X connect 12 0 9 0;
#X connect 13 0 1 1;
#X restore 181 171 pd pause;
#X obj 12 85 s bt;
#X obj 314 41 r bt;
#X obj 71 244 -;
#X obj 181 148 r bt;
#X obj 71 268 spigot;
#X obj 136 215 t f f;
#X obj 297 41 bng 15 250 50 0 empty empty empty 17 7 0 10 -262130 -1
-1;
#X floatatom 119 45 5 0 0 0 - - -, f 5;
#X obj 119 85 s met;
#X obj 95 104 r met;
#X obj 60 87 t b b b;
#X obj 129 170 s atk;
#X obj 348 41 r atk;
#X obj 82 224 r atk;
#X obj 111 293 f;
#X obj 60 63 metro;
#X obj 95 325 s dcy;
#X obj 389 41 r dcy;
#X text 224 135 START;
#X obj 158 283 3000;
#X floatatom 17 102 5 0 0 0 - - -, f 5;
#X floatatom 199 247 5 0 0 0 - - -, f 5;
#X obj 199 266 * 10;
#X text 24 27 PAUSE||PUNCH;
#X msg 302 85 1;
#X obj 293 63 ad~ 10 130;
#X floatatom 189 315 5 0 0 0 - - -, f 5;
#X obj 20 48 r tog;
#X obj 220 118 r play;
#X obj 310 166 r vol;
#N canvas 185 640 387 248 vals 0;
#X obj 230 219 outlet~;
#X obj 5 219 outlet~;
#X obj 115 219 outlet~;
#X obj 145 38 r bt;
#X obj 145 61 t;
#X obj 310 75 r met;
#X obj 168 138 b;
#X floatatom 63 96 5 0 0 0 - - -, f 5;
#X floatatom 182 95 5 0 0 0 - - -, f 5;
#X floatatom 301 98 5 0 0 0 - - -, f 5;
#X floatatom 46 44 5 0 0 0 - - -, f 5;
#X msg 46 63 x \$1;
#X floatatom 271 56 5 0 0 0 - - -, f 5;
#X msg 271 75 x \$1;
#X floatatom 93 41 5 0 0 0 - - -, f 5;
#X msg 93 60 x \$1;
#X msg 198 40 7;
#X obj 239 95 rand 30;
#X obj 119 94 rand 30;
#X obj 120 117 muse 84 4 7 9 10;
#X obj 0 117 muse 72 4 7 9 10;
#X obj 2 94 rand 20;
#X obj 239 117 muse 24 4 7 9 10;
#X obj 10 171 rind;
#X obj 128 171 rind;
#X obj 249 171 rind;
#X floatatom 302 134 5 0 0 0 - - -, f 5;
#X obj 302 153 t b f;
#X obj 256 138 / 2;
#X obj 5 194 curve~;
#X obj 104 195 curve~;
#X obj 236 191 curve~;
#X obj 284 171 rind -0.7;
#X obj 163 171 rind -0.7;
#X obj 44 171 rind -0.7;
#X connect 3 0 4 0;
#X connect 4 0 17 0;
#X connect 4 0 18 0;
#X connect 4 0 21 0;
#X connect 4 1 6 0;
#X connect 5 0 28 0;
#X connect 6 0 23 0;
#X connect 6 0 24 0;
#X connect 6 0 25 0;
#X connect 6 0 32 0;
#X connect 6 0 33 0;
#X connect 6 0 34 0;
#X connect 7 0 21 1;
#X connect 8 0 18 1;
#X connect 9 0 17 1;
#X connect 10 0 11 0;
#X connect 11 0 20 0;
#X connect 12 0 13 0;
#X connect 13 0 22 0;
#X connect 14 0 15 0;
#X connect 15 0 19 0;
#X connect 16 0 7 0;
#X connect 16 0 8 0;
#X connect 16 0 9 0;
#X connect 17 0 22 0;
#X connect 18 0 19 0;
#X connect 19 0 30 0;
#X connect 20 0 29 0;
#X connect 21 0 20 0;
#X connect 22 0 31 0;
#X connect 23 0 29 1;
#X connect 24 0 30 1;
#X connect 25 0 31 1;
#X connect 26 0 27 0;
#X connect 27 0 28 0;
#X connect 27 1 28 1;
#X connect 28 0 23 1;
#X connect 28 0 24 1;
#X connect 28 0 25 1;
#X connect 29 0 1 0;
#X connect 30 0 2 0;
#X connect 31 0 0 0;
#X connect 32 0 31 2;
#X connect 33 0 30 2;
#X connect 34 0 29 2;
#X restore 186 18 pd vals;
#X obj 191 40 freqm~;
#N canvas 1221 502 311 248 vals 0;
#X obj 38 220 outlet~;
#X obj 161 220 outlet~;
#X obj 161 21 r met;
#X obj 113 35 r bt;
#X obj 113 57 t;
#X obj 124 146 b;
#X floatatom 202 59 5 0 0 0 - - -, f 5;
#X msg 202 81 x \$1;
#X floatatom 67 52 5 0 0 0 - - -, f 5;
#X msg 66 71 x \$1;
#X floatatom 100 105 5 0 0 0 - - -, f 5;
#X floatatom 227 107 5 0 0 0 - - -, f 5;
#X msg 74 10 7;
#X obj 167 105 rand 30;
#X obj 167 128 muse -12 4 7 9 10;
#X obj 186 170 rind;
#X obj 51 169 rind;
#X floatatom 242 35 5 0 0 0 - - -, f 5;
#X obj 242 54 t b f;
#X obj 154 146 / 2;
#X obj 38 127 muse 84 4 7 9 10;
#X obj 38 105 rand 15;
#X obj 45 8 tgl 15 0 empty empty empty 17 7 0 10 -262144 -1 -1 0 1
;
#X obj 37 188 curve~;
#X obj 86 169 rind -0.7;
#X obj 161 190 curve~;
#X obj 221 170 rind -0.7;
#X connect 2 0 19 0;
#X connect 3 0 4 0;
#X connect 4 0 13 0;
#X connect 4 0 21 0;
#X connect 4 1 5 0;
#X connect 5 0 15 0;
#X connect 5 0 16 0;
#X connect 5 0 24 0;
#X connect 5 0 26 0;
#X connect 6 0 7 0;
#X connect 7 0 14 0;
#X connect 8 0 9 0;
#X connect 9 0 20 0;
#X connect 10 0 21 1;
#X connect 11 0 13 1;
#X connect 12 0 8 0;
#X connect 12 0 6 0;
#X connect 13 0 14 0;
#X connect 14 0 25 0;
#X connect 15 0 25 1;
#X connect 16 0 23 1;
#X connect 17 0 18 0;
#X connect 18 0 19 0;
#X connect 18 1 19 1;
#X connect 19 0 15 1;
#X connect 19 0 16 1;
#X connect 20 0 23 0;
#X connect 21 0 20 0;
#X connect 23 0 0 0;
#X connect 24 0 23 2;
#X connect 25 0 1 0;
#X connect 26 0 25 2;
#X restore 240 40 pd vals;
#X text 374 85 VIEW;
#X obj 119 63 * 10;
#X obj 221 198 bng 15 250 50 0 empty empty empty 17 7 0 10 -262144
-1 -1;
#X obj 221 220 s play;
#X obj 119 25 ii 100;
#X obj 272 118 *~ 0.6;
#X obj 216 63 fmbloc~;
#X obj 81 44 r met;
#X obj 53 184 rind;
#X obj 129 148 rind;
#X obj 17 116 t b f;
#X obj 70 159 * 1.1;
#X obj 44 158 / 2;
#X obj 354 165 / 1000;
#X obj 319 149 pad;
#X floatatom 33 223 5 0 0 0 - - -, f 5;
#X floatatom 96 187 5 0 0 0 - - -, f 5;
#X obj 165 63 r eq;
#X obj 165 83 b;
#X obj 220 100 ==;
#X obj 204 81 r eq0;
#X obj 154 104 r eq1;
#X obj 129 126 graid 0 1 63;
#X obj 358 126 tabwrite~ \$0-view;
#N canvas 168 558 450 300 out 0;
#X obj 140 65 r pre;
#X obj 140 136 s met;
#X floatatom 71 84 5 0 0 0 - - -, f 5;
#X obj 259 75 % 32;
#X obj 142 88 moses 32;
#X floatatom 206 152 5 0 0 0 - - -, f 5;
#X obj 270 109 graid 0 6000 31;
#X obj 140 114 graid 50 750 32;
#X obj 272 135 + 750;
#X connect 0 0 4 0;
#X connect 2 0 4 0;
#X connect 3 0 6 0;
#X connect 4 0 7 0;
#X connect 4 1 3 0;
#X connect 6 0 8 0;
#X connect 7 0 1 0;
#X connect 7 0 5 0;
#X connect 8 0 1 0;
#X connect 8 0 5 0;
#X restore 222 291 pd out;
#X connect 3 0 2 0;
#X connect 3 0 2 1;
#X connect 4 0 60 0;
#X connect 6 0 12 1;
#X connect 7 0 12 0;
#X connect 8 0 52 0;
#X connect 9 0 13 1;
#X connect 11 0 29 0;
#X connect 12 0 70 0;
#X connect 13 0 19 0;
#X connect 13 1 33 0;
#X connect 13 2 28 0;
#X connect 15 0 39 0;
#X connect 16 0 18 0;
#X connect 17 0 13 0;
#X connect 18 0 28 0;
#X connect 19 0 10 0;
#X connect 19 1 18 1;
#X connect 20 0 39 0;
#X connect 21 0 48 0;
#X connect 23 0 58 0;
#X connect 23 0 59 0;
#X connect 23 0 69 1;
#X connect 24 0 14 0;
#X connect 24 1 55 0;
#X connect 24 2 56 0;
#X connect 26 0 39 1;
#X connect 27 0 16 1;
#X connect 28 0 30 0;
#X connect 29 0 24 0;
#X connect 31 0 39 2;
#X connect 33 0 30 0;
#X connect 33 0 40 0;
#X connect 34 0 57 0;
#X connect 35 0 36 0;
#X connect 36 0 33 1;
#X connect 36 0 39 2;
#X connect 38 0 8 1;
#X connect 39 0 8 1;
#X connect 41 0 11 0;
#X connect 42 0 9 0;
#X connect 43 0 3 1;
#X connect 44 0 45 0;
#X connect 44 1 45 1;
#X connect 44 2 45 2;
#X connect 45 0 53 0;
#X connect 46 0 53 1;
#X connect 46 1 53 2;
#X connect 48 0 22 0;
#X connect 49 0 50 0;
#X connect 51 0 21 0;
#X connect 52 0 3 0;
#X connect 52 0 70 0;
#X connect 53 0 8 0;
#X connect 54 0 29 1;
#X connect 55 0 16 0;
#X connect 55 0 62 0;
#X connect 56 0 25 0;
#X connect 56 0 63 0;
#X connect 57 0 58 0;
#X connect 57 0 59 0;
#X connect 57 1 58 1;
#X connect 57 1 59 1;
#X connect 58 0 55 2;
#X connect 59 0 55 1;
#X connect 60 0 61 0;
#X connect 61 0 3 1;
#X connect 64 0 65 0;
#X connect 65 0 11 0;
#X connect 66 0 9 0;
#X connect 67 0 66 0;
#X connect 68 0 69 0;
#X connect 69 0 56 2;
