#N canvas 816 297 500 405 12;
#N canvas 0 0 450 300 meta 0;
#X text 175 60 artist : Johannes Kreidler;
#X text 175 80 title : Phase Modulation;
#X text 175 100 album : foo_pd;
#X text 175 120 tracknumber : 9;
#X text 175 140 totaltracks : 9;
#X text 175 160 discnumber : 1;
#X text 175 180 totaldiscs : 2;
#X text 175 200 comment : edited by myQwil;
#X text 175 220 length : 0:00;
#X restore 289 48 pd meta;
#N canvas 1288 465 450 346 mix 0;
#X obj 147 108 hsl 128 15 10 5000 0 0 cmet empty Carrier\ Tempo -2
-8 0 10 -262144 -1 -1 0 1;
#X obj 147 141 hsl 128 15 0 100 0 0 cdis empty Carrier\ Dissonance
-2 -8 0 10 -262144 -1 -1 0 1;
#X obj 147 178 hsl 128 15 10 5000 0 0 mmet empty Mod\ Tempo -2 -8 0
10 -262144 -1 -1 0 1;
#X obj 147 211 hsl 128 15 0.5 20 1 0 mdis empty Mod\ Range -2 -8 0
10 -262144 -1 -1 0 1;
#X restore 302 78 pd mix;
#X floatatom 151 172 5 0 0 0 - - -, f 5;
#X obj 238 190 *~;
#X obj 114 225 +~;
#X obj 113 279 cos~;
#X text 114 68 Carrier;
#X text 17 118 Carrier;
#X text 17 138 Phase;
#X text 16 231 Modulation;
#X text 30 25 3.6.3.1. Phase modulation;
#X text 114 88 Frequency;
#X text 215 95 Frequency;
#X text 213 76 Modulation;
#X text 18 212 Phase;
#X text 19 283 waveform;
#X text 295 354 www.pd-tutorial.com;
#X text 301 339 Johannes Kreidler;
#X floatatom 213 324 5 0 0 0 - - -, f 5;
#X obj 175 332 *~;
#X obj 160 256 r vol;
#X obj 152 279 * 0.33;
#X obj 114 140 phasor~;
#X obj 238 142 osc~;
#X obj 175 370 outlet~;
#X obj 54 369 dac~;
#X obj 75 316 *~;
#N canvas 1307 296 300 425 modindex 0;
#X obj 37 87 tgl 15 0 empty empty empty 17 7 0 10 -262144 -1 -1 0 1
;
#X floatatom 191 304 5 0 0 0 - - -, f 5;
#X obj 43 135 t;
#X obj 240 93 * 6;
#X obj 57 330 outlet~;
#X obj 37 55 r play;
#X floatatom 77 168 5 0 0 0 - - -, f 5;
#X obj 44 228 rind 2.5 7;
#X obj 145 119 rind 1000 6000;
#X obj 57 305 pad~ 8000;
#X obj 37 107 metro 8000;
#X obj 192 62 r mmet;
#X obj 166 185 r mdis;
#X connect 0 0 10 0;
#X connect 2 0 7 0;
#X connect 2 1 8 0;
#X connect 3 0 8 2;
#X connect 5 0 0 0;
#X connect 6 0 7 1;
#X connect 7 0 1 0;
#X connect 7 0 9 0;
#X connect 8 0 9 1;
#X connect 8 0 10 1;
#X connect 9 0 4 0;
#X connect 10 0 2 0;
#X connect 11 0 3 0;
#X connect 11 0 8 1;
#X connect 12 0 7 2;
#X restore 276 142 pd modindex;
#X text 274 120 Modulation Index;
#N canvas 1151 292 548 525 carrier 0;
#X obj 33 78 tgl 15 0 empty empty empty 17 7 0 10 -262144 -1 -1 0 1
;
#X obj 33 98 metro 8000;
#X obj 154 382 pad~ 8000;
#X obj 33 123 t;
#X obj 229 86 * 6;
#X obj 154 407 outlet~;
#X obj 168 338 +;
#X floatatom 84 372 5 0 0 0 - - -, f 5;
#X obj 173 147 r rt;
#X obj 33 48 r play;
#X obj 259 300 loadbang;
#X msg 259 325 39.97 0;
#X obj 33 284 rind -0.2 0.2;
#X obj 173 173 t b f;
#X msg 222 210 5;
#X obj 134 114 rind 1000 6000;
#X obj 68 244 * -1;
#X obj 86 162 bng 15 250 50 0 empty empty empty 17 7 0 10 -262144 -1
-1;
#X obj 181 52 r cmet;
#X obj 98 201 r cdis;
#X connect 0 0 1 0;
#X connect 1 0 3 0;
#X connect 2 0 5 0;
#X connect 3 0 12 0;
#X connect 3 1 15 0;
#X connect 3 1 17 0;
#X connect 4 0 15 2;
#X connect 6 0 2 0;
#X connect 6 0 7 0;
#X connect 8 0 13 0;
#X connect 9 0 0 0;
#X connect 10 0 11 0;
#X connect 11 0 2 0;
#X connect 12 0 6 0;
#X connect 13 0 6 0;
#X connect 13 1 14 0;
#X connect 13 1 6 1;
#X connect 14 0 2 1;
#X connect 15 0 2 1;
#X connect 15 0 1 1;
#X connect 16 0 12 1;
#X connect 18 0 4 0;
#X connect 18 0 15 1;
#X connect 19 0 12 2;
#X connect 19 0 16 0;
#X restore 114 113 pd carrier;
#X obj 343 257 s rt;
#X obj 217 281 s rt;
#X obj 193 142 r rt;
#X floatatom 259 264 5 0 0 0 - - -, f 5;
#X obj 217 255 r eq1;
#X obj 58 58 bng 15 250 50 0 empty empty empty 17 7 0 10 -262144 -1
-1;
#X obj 58 78 s play;
#X floatatom 343 233 5 0 0 0 - - -, f 5;
#X text 381 257 root;
#X obj 276 204 loadbang;
#X msg 294 232 39.97;
#X obj 199 172 pad~;
#X msg 403 228 49.92;
#X msg 421 250 46.15;
#X floatatom 126 318 5 0 0 0 - - -, f 5;
#X obj 126 340 / 1000;
#X obj 213 346 / 1000;
#X obj 394 116 bng 15 250 50 0 empty empty empty 17 7 0 10 -262144
-1 -1;
#X floatatom 345 202 5 0 0 0 - - -, f 5;
#X floatatom 447 154 5 0 0 0 - - -, f 5;
#X obj 394 74 tgl 15 0 empty empty empty 17 7 0 10 -262144 -1 -1 0
1;
#X obj 394 93 metro 100;
#X floatatom 390 202 5 0 0 0 - - -, f 5;
#X msg 292 162 oct 12;
#X obj 394 134 rand 14;
#X obj 345 176 muse 30 2 4 7 11;
#X text 294 309 based on a patch by:;
#X obj 20 257 r play;
#X obj 66 339 *~;
#X obj 19 337 line~;
#X msg 19 312 1 100;
#X connect 2 0 41 0;
#X connect 3 0 4 1;
#X connect 4 0 5 0;
#X connect 5 0 26 0;
#X connect 5 0 19 0;
#X connect 18 0 46 0;
#X connect 19 0 24 0;
#X connect 20 0 21 0;
#X connect 21 0 26 1;
#X connect 22 0 4 0;
#X connect 23 0 3 0;
#X connect 26 0 58 0;
#X connect 27 0 3 1;
#X connect 29 0 22 0;
#X connect 32 0 2 0;
#X connect 34 0 31 0;
#X connect 35 0 36 0;
#X connect 37 0 30 0;
#X connect 39 0 40 0;
#X connect 40 0 37 0;
#X connect 41 0 23 0;
#X connect 42 0 37 0;
#X connect 43 0 37 0;
#X connect 44 0 45 0;
#X connect 45 0 26 1;
#X connect 46 0 19 1;
#X connect 47 0 54 0;
#X connect 50 0 51 0;
#X connect 51 0 47 0;
#X connect 52 0 55 1;
#X connect 53 0 55 0;
#X connect 54 0 49 0;
#X connect 54 0 55 0;
#X connect 55 0 30 0;
#X connect 55 0 48 0;
#X connect 57 0 60 0;
#X connect 58 0 25 0;
#X connect 58 0 25 1;
#X connect 59 0 58 1;
#X connect 60 0 59 0;
